<?xml version="1.0" encoding="UTF-8"?>
<svg id="Layer_1" xmlns="http://www.w3.org/2000/svg" version="1.1" viewBox="0 0 17 18">
  <!-- Generator: Adobe Illustrator 29.8.2, SVG Export Plug-In . SVG Version: 2.1.1 Build 3)  -->
  <defs>
    <style>
      .st0 {
        fill: #ffffff;
      }
    </style>
  </defs>
  <path class="st0" d="M16.7,4.5c0-.3-1.4-.7-4.7-.6l-4.1,1.1,4.1-1.4C10.6.6,9.4-.3,6.1.4c0,0-.2-.2-.3-.2s-.4,0-.6.2c0,0-.1,0-.2.2,0,0,0,.2,0,.2C1.7,2.4.9,3.8,1.7,7.4l-.3.9h.5c0,1.2.3,1.5,1.1,2l-.5,1.4-.6-.3c-.3.9-.6,1.3-1.4,2,2.7,3.7,4.9,4.6,10,4.1l-.2-.3-.2-.3-.3-.3-.3-.2-.5-.5-.3-.8-.2-.9s1,.9,1.8,1.2c.2,0,.3,0,.5.2,0,0,0,0,.2.2.1,0,.2,0,.3.2,0,0,.2.2.2.2v.5l.6-.5s.2-.2.3-.3c.2-.2.2-.4.3-.6,0-.1.1-.2.2-.3,0-.1,0-.3,0-.3v-.8s.3.7.3.5c0,0,0-.2,0-.2v-1.2l-.3-.5c-.1-.2-.2-.5-.3-.8,0-.1,0-.3-.2-.3,0,0-.2,0-.2,0h-.8l1.2-.6c0-.4,0-.6-.3-.9.6,0,.8-.3,1.1-.8l-1.1-2,.6-.9c3.5-.2,3.6-1.4,3.6-1.7ZM4.9,9.4c.3,0,0,.2,0,.2-.9.5-2.2-1.2-1.8-2.1.2-.4.4-.7.9-.8.5,0,.8.1,1.2.5-1.3-.3-1.6.1-1.7.9,0,.7,1.1,1.4,1.4,1.4ZM7.2,11.4c0-1.2,0-1.6.2-2.3,0,1.2.1,1.9.5,3.2-.3-.2-.4-.3-.6-.9ZM9,13.5c-.2-.8-.2-1.2-.2-1.8.3,1.3.5,1.8,1.2,2.7-.4-.2-.6-.3-1.1-.9ZM10.2,10c.1-1.3,0-1.8-.5-2.3h1.2c.3.7,0,1.2-.8,2.3Z"/>
</svg>