<svg width="39" height="42" viewBox="0 0 39 42" fill="none" xmlns="http://www.w3.org/2000/svg">
<path d="M27.7009 8.17951C24.3789 1.0264 21.3635 -1.12426 13.486 0.52534C13.486 0.52534 13.1215 0.160817 12.757 0.160817C12.3925 0.160817 11.7663 0.170236 11.2991 0.52534C11.1388 0.647133 10.9982 0.698831 10.9346 0.889789C10.8896 1.02482 10.9346 1.25428 10.9346 1.25428C2.92105 5.31109 0.920752 8.71087 2.91589 17.2917L2.18692 19.4786H2.5514H3.28037C3.34437 22.2784 4.08595 23.1291 5.83178 24.2169L4.73832 27.4973L3.28037 26.7683C2.60711 28.951 1.95003 30.0213 0 31.5066C6.60121 40.3802 11.8192 42.6305 24.0561 41.3477L23.6916 40.6188L23.3271 39.8898L22.5981 39.1608L21.8692 38.7963L20.7757 37.7029L20.0467 35.8804L19.6822 33.6935C19.6822 33.6935 22.1416 35.8683 24.0561 36.6094C24.4758 36.7719 24.7894 36.7038 25.1495 36.9739C25.3106 37.0947 25.3551 37.2148 25.514 37.3384C25.7653 37.5338 25.9918 37.5075 26.243 37.7029C26.4019 37.8265 26.6075 38.0674 26.6075 38.0674V39.1608L28.0654 38.0674C28.0654 38.0674 28.5472 37.6562 28.7944 37.3384C29.1852 36.8359 29.2387 36.4498 29.5234 35.8804C29.6657 35.5958 29.8188 35.4622 29.8878 35.1515C29.9496 34.8736 29.8878 34.4225 29.8878 34.4225V34.058V33.6935V32.6001C29.8878 32.6001 30.5162 34.1968 30.6168 33.6935C30.6447 33.554 30.6168 33.329 30.6168 33.329V30.4132L29.8878 29.3197C29.6032 28.8927 29.4849 28.191 29.1589 27.4973C29.0235 27.2092 29.0963 26.8689 28.7944 26.7683C28.6594 26.7233 28.4299 26.7683 28.4299 26.7683H26.6075L29.5234 25.3103C29.6304 24.3653 29.5944 23.8569 28.7944 23.1234C30.2997 22.9655 30.7843 22.4857 31.3458 21.301L28.7944 16.5627L30.2523 14.3758C38.6355 14.0114 39 11.0955 39 10.3664C39 9.55147 35.6395 8.58952 27.7009 8.90848L17.8598 11.4599L27.7009 8.17951Z" fill="#8BE196"/>
<path d="M17.4954 29.1591C16.748 26.1265 16.6161 24.4651 16.4019 21.5049C16.0129 23.0118 15.916 24.1648 16.0374 26.9722C16.4519 28.3383 16.8135 28.6773 17.4954 29.1591Z" fill="#00141E"/>
<path d="M22.9626 34.2619C21.3376 32.152 20.6617 30.738 20.0468 27.7011C19.9492 29.2626 19.8983 30.1407 20.4112 32.075C21.437 33.4775 21.9824 33.7083 22.9626 34.2619Z" fill="#00141E"/>
<path d="M25.1503 18.2246H22.2344C23.5692 19.2285 23.6873 20.5779 23.3278 23.6919C25.2443 21.0869 25.8649 19.8049 25.1503 18.2246Z" fill="#00141E"/>
<path d="M8.38376 15.6735C9.66169 15.5244 10.2577 15.9392 11.2996 16.7669C8.10374 16.0533 7.34108 17.0987 7.2903 18.9538C7.24341 20.6672 9.87802 22.2616 10.5707 22.2342C11.2634 22.2069 10.5707 22.5987 10.5707 22.5987C8.37015 23.888 5.34959 19.7716 6.19684 17.4959C6.58473 16.454 7.06556 15.8024 8.38376 15.6735Z" fill="#00141E"/>
<path d="M17.6309 5.07494L21.1035 7.47905V5.07494L22.9733 6.67768V3.20508" stroke="#00141E" stroke-width="1.3"/>
</svg>
