<svg width="15" height="15" viewBox="0 0 15 15" fill="none" xmlns="http://www.w3.org/2000/svg">
<path d="M4.92833 10.4967L8.47917 9.3525C8.69306 9.28028 8.87389 9.17 9.02167 9.02167C9.16944 8.87333 9.27972 8.6925 9.3525 8.47917L10.5 4.92417C10.5394 4.79528 10.51 4.6825 10.4117 4.58583C10.3128 4.48917 10.1997 4.46139 10.0725 4.5025L6.52083 5.6475C6.3075 5.71972 6.12667 5.83 5.97833 5.97833C5.83056 6.12667 5.72028 6.3075 5.6475 6.52083L4.5 10.0758C4.46056 10.2047 4.49 10.3175 4.58833 10.4142C4.68722 10.5108 4.80028 10.5386 4.9275 10.4975M7.49583 8.42917C7.23694 8.42917 7.01806 8.33861 6.83917 8.1575C6.65972 7.97583 6.57 7.75528 6.57 7.49583C6.57 7.23694 6.66083 7.01805 6.8425 6.83917C7.02417 6.65972 7.24444 6.57 7.50333 6.57C7.76278 6.57 7.98222 6.66083 8.16167 6.8425C8.34055 7.02417 8.43 7.24444 8.43 7.50333C8.43 7.76278 8.33917 7.98222 8.1575 8.16167C7.97583 8.34 7.75556 8.42917 7.49667 8.42917M7.5025 15C6.46528 15 5.49028 14.8033 4.5775 14.41C3.66472 14.0161 2.87056 13.4817 2.195 12.8067C1.51944 12.1317 0.984722 11.3383 0.590833 10.4267C0.196945 9.515 0 8.54028 0 7.5025C0 6.46472 0.196945 5.48972 0.590833 4.5775C0.984167 3.66472 1.51778 2.87056 2.19167 2.195C2.86556 1.51944 3.65917 0.984722 4.5725 0.590833C5.48583 0.196945 6.46083 0 7.4975 0C8.53417 0 9.50917 0.196945 10.4225 0.590833C11.3353 0.984167 12.1294 1.51806 12.805 2.1925C13.4806 2.86694 14.0153 3.66056 14.4092 4.57333C14.8031 5.48611 15 6.46083 15 7.4975C15 8.53417 14.8033 9.50917 14.41 10.4225C14.0167 11.3358 13.4822 12.13 12.8067 12.805C12.1311 13.48 11.3378 14.0147 10.4267 14.4092C9.51556 14.8036 8.54083 15.0006 7.5025 15Z" fill="#989898"/>
</svg>
