<svg width="15" height="15" viewBox="0 0 15 15" fill="none" xmlns="http://www.w3.org/2000/svg">
<path d="M3 13.125C2.6875 13.125 2.42188 13.0156 2.20312 12.7969C1.98438 12.5781 1.875 12.3125 1.875 12V5.625C1.875 5.3125 1.98438 5.04688 2.20312 4.82812C2.42188 4.60938 2.6875 4.5 3 4.5H4.5V3C4.5 2.375 4.71875 1.84375 5.15625 1.40625C5.59375 0.96875 6.125 0.75 6.75 0.75H8.25C8.875 0.75 9.40625 0.96875 9.84375 1.40625C10.2812 1.84375 10.5 2.375 10.5 3V4.5H12C12.3125 4.5 12.5781 4.60938 12.7969 4.82812C13.0156 5.04688 13.125 5.3125 13.125 5.625V12C13.125 12.3125 13.0156 12.5781 12.7969 12.7969C12.5781 13.0156 12.3125 13.125 12 13.125H3ZM6 4.5H9V3C9 2.8125 8.93438 2.65625 8.80312 2.53125C8.67188 2.40625 8.5125 2.34375 8.25 2.34375H6.75C6.5625 2.34375 6.40625 2.40938 6.28125 2.54062C6.15625 2.67188 6.09375 2.83125 6.09375 3.09375V4.5H6Z" fill="#989898"/>
</svg>
