<svg width="442" height="248" viewBox="0 0 442 248" fill="none" xmlns="http://www.w3.org/2000/svg">
<path d="M82.7768 60.2682C86.573 59.7681 90.1383 59.2236 93.7214 58.8517C95.7283 58.6434 97.3149 58.0518 98.7451 56.4576C104.472 50.0744 110.584 44.0553 116.586 37.9301C122.817 31.5706 130.386 28.318 139.046 27.0636C150.667 25.3805 162.281 23.6247 173.98 22.6201C181.422 21.9811 188.885 21.4648 196.369 21.4809C199.025 21.4866 199.216 21.2102 198.371 18.7224C197.533 16.2563 196.578 13.8295 195.761 11.3569C195.329 10.0491 194.737 9.33516 193.194 9.09198C190.119 8.6073 188.473 5.56401 189.549 2.87735C190.48 0.555528 193.156 -0.617812 195.363 0.328692C197.759 1.35628 198.959 4.35445 197.469 6.64239C196.272 8.48235 196.486 10.0149 197.194 11.812C198.147 14.2345 199.071 16.6761 199.84 19.1614C200.365 20.8608 201.224 21.5338 203.085 21.5288C215.357 21.4956 227.57 22.6692 239.79 23.58C250.832 24.403 261.862 25.4246 272.875 26.5706C282.127 27.5333 291.343 28.8355 300.582 29.9233C308.495 30.8551 316.426 31.6397 324.337 32.592C333.239 33.6637 342.131 34.8306 351.022 35.9924C359.999 37.1652 368.973 38.3592 377.943 39.589C383.368 40.3329 387.381 43.1972 390.322 47.796C392.791 51.6588 395.47 55.3878 398.219 59.4139C399.919 57.0061 401.729 55.3212 400.356 52.201C399.335 49.881 401.574 47.2078 404.258 46.7719C406.885 46.3453 409.258 48.2613 409.498 51.0029C409.712 53.4469 407.615 55.6881 405.013 55.7967C400.51 55.9845 398.441 59.7564 400.791 63.6099C406.523 73.0118 412.168 82.4581 416.849 92.4465C419.162 97.3802 420.702 102.648 423.492 107.383C424.47 109.044 424.594 111.078 424.628 113.013C424.654 114.46 425.25 115.037 426.646 114.755C428.128 114.456 429.595 114.089 431.079 113.804C432.126 113.603 432.277 112.856 432.476 111.983C432.986 109.747 434.659 108.844 436.756 108.818C439.045 108.79 440.587 110.076 441.192 112.239C441.751 114.232 441.061 115.985 439.275 117.012C437.4 118.089 435.442 118.089 433.62 116.67C432.89 116.102 432.786 114.671 431.377 115.025C429.347 115.534 427.193 115.575 425.282 116.508C424.573 116.854 424.79 117.684 424.802 118.347C424.881 122.629 425.034 126.91 425.02 131.192C425.008 134.969 424.882 138.75 424.667 142.521C424.562 144.376 425.366 145.236 427.026 145.817C432.031 147.57 432.072 147.618 431.772 152.939C431.513 157.556 430.582 162.086 429.611 166.594C429.135 168.805 427.842 170.546 425.87 171.767C421.65 174.377 417.359 176.852 412.882 179.002C411.963 179.444 410.315 179.643 410.72 180.998C411.195 182.588 411.782 184.429 413.812 184.94C414.051 185 414.315 184.949 414.567 184.963C416.952 185.096 418.626 186.257 419.051 188.626C419.426 190.715 418.585 192.541 416.6 193.413C414.679 194.258 412.602 194.398 411.041 192.595C409.478 190.791 409.349 188.757 410.819 186.83C412.618 184.473 409.993 183.427 409.364 181.843C408.722 180.227 407.47 181.432 406.603 181.815C392.459 188.065 378.204 194.039 363.677 199.35C363.143 199.545 362.639 199.819 361.958 200.132C363.429 202.374 365.332 204.03 366.991 205.89C367.623 206.598 368.391 206.216 369.121 206.166C371.468 206.004 372.941 207.153 373.73 209.285C374.515 211.405 373.799 213.142 372.078 214.369C370.354 215.598 368.383 215.676 366.671 214.361C364.895 212.997 364.125 210.925 365.257 208.992C366.38 207.073 365.479 206.086 364.395 204.866C360.405 200.378 360.423 200.403 354.808 202.351C348.854 204.417 342.898 206.476 336.9 208.405C335.09 208.987 334.259 209.585 334.754 211.749C335.257 213.945 335.163 215.962 338.034 216.872C340.544 217.668 341.225 221.165 339.81 223.303C338.422 225.401 334.947 225.875 332.83 224.257C330.675 222.609 330.179 219.362 332.345 217.676C335.229 215.431 333.491 212.961 333.319 210.564C333.258 209.704 332.433 209.521 331.544 209.687C324.191 211.062 317.013 209.501 309.832 208.27C306.818 207.753 304.564 209.542 302.056 210.52C301.175 210.863 301.729 211.851 302.074 212.518C303.348 214.981 304.701 217.406 305.897 219.906C306.589 221.353 307.392 221.967 309.151 221.874C312.085 221.719 314.29 224.254 314.076 227.061C313.871 229.756 311.412 231.558 308.464 231.176C305.498 230.792 303.673 227.346 305.095 224.386C305.773 222.975 305.696 221.945 304.95 220.664C303.598 218.341 302.302 215.974 301.163 213.542C300.457 212.032 299.346 211.581 297.841 211.303C296.563 211.067 296.067 211.488 296.026 212.631C295.849 217.501 295.71 222.372 295.546 227.242C295.512 228.256 296.195 228.674 296.929 229.149C298.975 230.474 299.569 232.384 298.742 234.622C297.952 236.757 296.231 237.838 294.01 237.643C291.816 237.45 290.213 236.191 289.804 233.918C289.377 231.542 290.436 229.841 292.617 228.873C293.333 228.555 294.158 228.297 294.135 227.404C294.005 222.391 295.051 217.396 294.564 212.375C291.146 212.416 288.913 213.966 287.797 217.141C285.595 223.404 283.503 229.704 281.288 235.962C280.794 237.357 280.974 238.209 282.184 239.184C284.021 240.666 284.411 242.663 283.29 244.844C282.227 246.911 280.185 247.854 277.753 247.258C275.616 246.735 274.436 245.203 274.321 243.091C274.194 240.751 275.286 239.043 277.681 238.422C278.642 238.173 279.361 237.74 279.695 236.741C281.852 230.287 284.029 223.841 286.186 217.387C286.313 217.005 286.316 216.581 286.403 216.007C283.592 215.686 280.996 216.316 278.394 216.721C277.57 216.849 277.333 217.74 277.007 218.412C272.173 228.378 264.643 234.97 253.652 237.434C248.984 238.481 244.386 239.71 239.544 239.794C230.906 239.942 224.014 236.156 217.867 230.551C214.36 227.354 211.517 223.609 208.993 219.618C208.344 218.593 207.811 218.053 206.398 218.46C203.468 219.306 201.208 218.205 200.415 215.869C199.502 213.18 200.641 210.913 203.544 209.637C203.848 209.504 204.145 209.354 204.799 209.045C202.17 201.775 200.783 194.271 201.613 186.045C197.257 188.591 193.657 186.197 189.947 185.258C186.451 184.373 183.003 183.264 179.595 182.078C177.881 181.482 176.993 181.908 176.188 183.474C174.806 186.163 173.301 188.797 171.7 191.362C170.698 192.967 170.234 194.271 171.384 196.143C172.692 198.274 171.703 200.813 169.603 201.98C167.372 203.219 164.669 202.548 163.424 200.445C162.151 198.297 162.683 195.571 164.7 194.166C165.168 193.84 165.796 193.414 166.279 193.491C169.103 193.938 169.978 191.963 171.028 190.002C172.57 187.119 174.257 184.313 176.023 181.229C172.696 179.619 169.254 178.919 165.944 177.89C159.129 175.771 152.27 173.793 145.429 171.762C144.312 171.43 143.082 170.828 142.41 172.392C141.791 173.833 139.765 174.946 141.685 176.983C143.218 178.61 143.183 180.752 141.863 182.548C140.554 184.33 138.658 184.968 136.489 184.15C134.149 183.267 133.469 181.427 133.722 179.088C133.967 176.817 135.303 175.538 137.484 175.394C140.272 175.21 140.282 172.62 141.593 171.252C141.291 170.172 140.421 170.172 139.742 169.968C129.207 166.808 118.667 163.66 108.119 160.541C106.981 160.204 105.801 159.463 104.735 160.943C103.707 162.37 104.299 163.266 105.189 164.448C106.999 166.853 106.331 169.796 103.865 171.12C101.433 172.425 98.4844 171.601 97.3291 169.293C96.0618 166.762 97.3 163.724 100.148 162.797C101.885 162.232 103.574 161.822 103.757 159.26C93.9979 155.776 83.695 153.778 74.0252 150.122C73.0564 150.875 73.0803 151.88 72.7587 152.725C72.5201 153.352 72.3439 154.002 72.1395 154.642C67.8818 167.974 62.9464 171.979 48.9916 173.671C43.3145 174.359 37.7066 175.403 32.3233 172.236C25.2198 168.058 20.4588 161.978 17.1583 154.56C14.0179 147.503 12.9322 140.091 13.1881 132.45C13.2494 130.618 12.7231 129.546 10.987 128.742C4.39121 125.687 1.38092 120.111 0.596036 113.164C0.314379 110.671 -0.102637 108.185 0.0230025 105.642C0.216914 101.717 1.29851 100.095 5.07698 99.203C6.83198 98.7887 7.357 97.742 7.5771 96.2204C8.24907 91.575 8.8819 86.9229 9.63584 82.2906C10.4625 77.2114 13.1403 73.912 18.3064 72.3088C30.6222 68.4867 43.3609 66.8002 55.9605 64.4252C63.8674 62.9347 71.8498 61.8436 79.8005 60.5875C80.7107 60.4437 81.6353 60.3909 82.7768 60.2682ZM135.933 182.092C135.933 182.092 135.92 182.08 136.11 182.355C137.89 184.006 139.454 183.34 140.869 181.847C142.237 180.402 141.881 178.928 140.64 177.642C139.108 176.054 137.465 175.985 135.71 177.701C135.617 177.776 135.527 177.857 135.222 178.226C134.198 179.755 134.471 181.042 135.933 182.092ZM182.491 60.2243C182.44 56.5877 180.383 55.2574 177.119 57.1065C175.615 58.4293 176.267 60.0474 176.702 61.8512C179.501 63.434 180.905 63.0934 182.356 60.5014C182.356 60.5014 182.344 60.5262 182.491 60.2243ZM269.288 98.6857C269.455 98.5116 269.622 98.3375 269.899 97.8336C270.238 96.0556 270.009 94.5396 268.184 93.6044C266.764 92.8767 265.633 93.2381 264.328 94.5043C263.089 95.8229 263.037 97.2713 264.238 98.538C265.636 100.011 267.326 100.032 269.288 98.6857ZM341.009 141.489C341.822 140.126 341.543 138.843 340.527 137.344C338.887 135.812 337.361 136.203 335.76 137.895C335.584 139.229 335.103 140.567 335.977 142.158C337.72 143.397 339.357 143.466 341.009 141.489ZM206.912 211.591C205.379 209.925 203.813 210.739 202.447 211.723C201.315 212.539 200.832 213.773 201.641 215.331C203.21 214.564 203.524 213.718 202.068 212.641C203.324 211.144 204.187 212.064 204.998 213.17C204.079 214.407 205.138 216.135 203.628 217.273C205.613 217.818 206.873 217.222 207.817 215.893C208.702 214.647 208.612 213.423 207.404 212.149C207.308 212.05 207.207 211.957 206.912 211.591ZM276.488 142.997C275.501 144.488 275.695 145.754 277.358 147.068C278.344 148.094 279.448 148.36 280.904 147.542C278.055 146.321 280.868 145.165 280.866 144.003C280.49 143.675 279.793 144.078 279.751 143.519C279.653 142.241 281 142.769 281.664 142.142C279.757 140.889 278.164 141.164 276.488 142.997ZM312.654 227.172C312.211 223.336 310.519 222.333 307.185 223.93C309.18 224.854 309.138 224.853 309.066 228.1C309.034 229.505 307.767 228.765 307.173 229.27C310.347 230.367 311.349 230.027 312.525 227.492C312.525 227.492 312.546 227.463 312.654 227.172ZM401.549 150.047C402.587 148.524 402.555 147.003 401.198 145.766C400.266 144.916 399.133 144.021 397.742 145.055C398.711 146.72 399.768 148.239 398.122 149.959C396.88 149.05 395.65 148.272 396.35 146.46C395.28 147.979 395.668 149.288 396.817 150.309C398.259 151.59 399.836 151.546 401.322 150.304C401.322 150.304 401.307 150.318 401.549 150.047ZM98.8592 165.126C97.6267 166.572 97.6843 168.105 98.9755 169.358C100.397 170.737 102.065 170.857 103.641 169.474C103.641 169.474 103.624 169.488 103.899 169.276C105.276 167.803 105.39 166.23 103.906 164.855C102.364 163.426 100.659 163.147 99.1022 164.933C99.1022 164.933 99.1168 164.919 98.8592 165.126ZM108.876 151.654C100.398 148.708 91.8656 145.956 82.9145 143.823C83.8491 147.573 84.5592 148.316 87.5424 149.135C93.1124 150.665 98.6807 152.202 104.241 153.766C105.596 154.147 106.861 154.638 107.335 152.602C107.553 151.667 108.439 151.731 109.267 152.173C109.105 153.066 108.944 153.958 108.746 155.055C120.705 158.584 132.643 162.107 144.78 165.688C144.85 163.831 143.968 163.731 143.162 163.493C140.342 162.66 137.679 161.433 134.963 160.319C126.583 156.879 118.019 153.943 108.876 151.654ZM215.803 38.6596C209.062 37.7089 202.321 36.7582 195.579 35.8075C202.406 37.097 209.214 38.5319 216.496 38.9825C225.251 40.5333 234.001 42.1122 242.762 43.6293C262.342 47.0201 281.933 50.3544 301.249 55.092C302.548 55.4108 304.078 55.0509 305.435 56.4626C303.947 56.6393 302.826 56.6344 301.661 56.3528C291.222 53.8294 280.713 51.6299 270.147 49.7188C257.361 47.4062 244.542 45.2735 231.759 42.947C221.277 41.0394 210.723 39.6142 200.182 38.1154C195.55 37.4569 190.916 36.2297 186.181 36.9485C182.877 37.4501 179.453 37.7411 176.293 40.1284C177.812 40.3465 178.887 40.5144 179.965 40.6537C189.858 41.931 199.78 43.0152 209.638 44.5225C223.475 46.6382 237.286 48.9527 251.069 51.3962C263.616 53.6204 276.158 55.8948 288.58 58.7763C292.69 59.7299 295.384 62.0936 296.229 66.1959C297.157 70.7011 297.921 75.2499 298.52 79.8107C299.687 88.6907 300.535 97.6145 301.805 106.479C302.96 114.546 297.634 119.971 289.634 118.504C287.521 118.117 285.413 117.712 282.816 117.223C284.402 120.922 283.768 124.377 283.872 127.785C283.913 129.124 284.006 130.468 285.567 130.765C292.01 131.994 298.227 134.666 305.063 133.386C308.641 132.716 311.447 135.614 311.089 139.318C310.612 144.239 309.825 149.131 309.407 154.055C308.867 160.405 308.575 166.776 308.142 173.135C308.045 174.565 308.691 175.253 310.005 175.672C315.647 177.473 321.222 177.438 326.804 175.386C328.31 174.832 328.716 173.976 328.248 172.391C327.756 172.496 327.347 172.528 326.98 172.671C323.448 174.041 319.859 174.498 316.133 173.526C312.775 172.649 311.886 171.531 311.838 168.06C311.743 161.077 312.471 154.136 312.962 147.187C313.33 141.972 314.538 137.21 321.206 136.911C322.057 136.873 322.162 136.177 322.076 135.403C321.79 132.821 321.75 130.197 321.278 127.653C317.591 107.775 313.669 87.9505 308.458 68.3961C307.284 63.9891 305.161 59.512 307.501 54.6245C305.35 54.0993 303.42 53.574 301.467 53.16C283.341 49.3178 265.159 45.7637 246.833 43.0124C236.627 41.4802 226.382 40.2038 215.803 38.6596ZM349.66 55.2383C349.052 55.9054 348.233 56.0265 347.398 56.2007C338.453 58.0664 329.464 59.7739 320.802 62.7679C316.03 64.4172 315.194 66.0558 316.713 70.9539C320.265 82.4116 322.931 94.0815 325.409 105.807C326.27 109.882 326.931 114.073 329.382 117.651C330.79 119.706 332.639 121.426 335.111 121.213C338.686 120.907 342.197 119.92 345.639 118.817C346.513 118.537 346.826 117.902 346.636 117.053C346.396 115.986 345.582 116.149 344.829 116.332C342.71 116.845 340.6 117.396 338.481 117.91C334.937 118.769 332.373 117.587 330.827 114.31C330.329 113.254 329.936 112.131 329.632 111.001C326.155 98.0416 322.739 85.0671 318.699 72.2642C317.082 67.1409 317.813 66.0435 322.978 64.4848C323.218 64.4122 323.473 64.385 323.713 64.3101C333.816 61.154 344.142 58.9075 354.502 56.8047C355.457 56.611 356.387 56.5635 355.82 54.9842C353.787 55.9171 351.755 57.0234 349.805 54.5217C349.615 50.052 352.343 48.2118 356.43 50.0638C357.195 50.4104 358 50.72 358.674 51.2033C359.849 52.0452 360.976 52.1253 362.432 51.8872C371.157 50.4601 379.687 47.5868 388.988 48.2205C386.543 44.2077 383.225 41.7358 378.761 41.0282C373.544 40.2015 368.28 39.6822 363.064 38.8506C345.174 35.9982 327.15 34.2077 309.18 32.0002C293.711 30.1 278.201 28.5275 262.7 26.9071C255.108 26.1135 247.499 25.4801 239.889 24.8827C230.852 24.1733 221.81 23.5062 212.761 22.9735C209.058 22.7555 205.33 22.9374 201.614 22.9374C202.581 24.3948 203.872 24.4678 205.189 24.5117C208.127 24.6097 211.065 24.7158 214.002 24.853C221.885 25.2211 229.764 25.7355 237.651 25.9443C243.608 26.1019 249.545 26.4293 255.469 27.0121C260.976 27.5539 266.467 28.2862 271.963 28.8777C278.119 29.5402 284.253 30.3649 290.398 31.0957C297.953 31.9942 305.477 33.1514 313.029 34.0869C321.259 35.1067 329.5 36.0604 337.748 36.9281C343.073 37.4884 348.37 38.279 353.727 38.6043C358.823 38.9137 363.978 39.27 368.513 42.2833C368.033 42.8165 367.444 42.8558 366.864 42.9005C356.31 43.7147 345.895 45.5133 335.541 47.614C327.317 49.2826 319.108 51.0945 311.271 54.2236C308.195 55.4514 307.276 56.9603 307.814 60.0483C308.145 61.947 308.481 63.8533 308.973 65.7142C314.121 85.1768 318.425 104.82 321.916 124.649C322.595 128.509 322.557 132.47 323.55 136.247C329.16 136.376 329.485 136.71 329.821 142.538C329.835 142.79 329.822 143.043 329.836 143.295C330.441 154.217 330.223 165.128 329.276 176.021C329.102 178.019 329.747 179.176 331.611 179.897C334.854 181.153 337.913 182.728 339.841 185.834C340.37 186.688 341.06 186.844 341.99 186.466C345.103 185.199 348.229 183.962 351.36 182.741C352.365 182.349 352.754 181.834 352.51 180.642C351.9 177.667 349.665 176.015 346.18 176.192C343.068 176.351 341.078 174.556 341.118 171.626C341.154 169.021 343.312 167.095 345.941 167.322C348.629 167.554 350.906 170.044 350.108 172.528C349.095 175.683 351.352 176.497 353.127 177.707C353.911 178.241 354.948 178.404 355.872 178.731C357.948 174.935 358.581 160.217 356.713 156.084C352.918 157.24 349.06 158.345 345.252 159.6C342.751 160.424 340.329 160.465 337.858 159.583C336.305 159.029 334.783 158.429 334.606 156.508C334.432 154.63 335.428 153.219 336.939 152.336C338.892 151.196 340.949 150.214 343.024 149.307C347.929 147.165 347.938 147.2 347.26 142.01C347.173 141.345 347.188 140.668 347.159 139.996C347.104 138.721 346.399 138.308 345.176 138.276C343.514 138.234 343.152 139.097 342.898 140.563C342.471 143.022 340.392 144.481 337.987 144.369C335.748 144.265 333.879 142.46 333.664 140.194C333.473 138.185 335.12 135.901 337.245 135.249C339.051 134.694 340.48 135.356 341.855 136.526C343.421 137.859 346.925 137.137 347.079 135.389C347.525 130.317 347.444 125.229 346.955 120.224C346.512 120.139 346.338 120.052 346.192 120.085C343.49 120.694 340.79 121.312 338.092 121.94C333.389 123.037 330.616 121.922 328.048 117.837C327.152 116.411 326.369 114.917 325.987 113.258C324.537 106.965 323.003 100.689 321.684 94.3678C320.001 86.2998 317.571 78.4431 315.309 70.5344C313.941 65.7543 315.273 63.3586 319.829 61.7955C326.591 59.4755 333.528 57.7907 340.526 56.4032C343.614 55.7907 346.637 54.5783 349.66 55.2383ZM163.045 91.109C161.765 92.471 160.395 91.2745 159.08 91.2029C158.168 91.1532 157.226 90.6822 156.968 92.4129C160.507 93.4852 164.155 94.0173 168.37 94.7656C166.316 93.1832 164.749 91.9757 162.965 90.4911C162.387 89.7656 161.009 89.7229 161.229 88.3038C161.485 86.6513 161.506 84.9556 161.847 83.3242C164.643 69.9473 167.462 56.5752 170.362 43.2208C170.649 41.9003 170.541 40.9336 169.335 40.1555C170.559 39.3644 171.839 39.8584 172.84 38.9856C176.697 35.6229 181.519 34.7775 186.367 34.0888C194.253 32.9683 202.146 31.8942 210.031 30.7725C215.925 29.9341 221.79 28.813 227.723 30.6722C230.117 31.4225 232.603 31.9547 235.087 32.3213C237.798 32.7214 240.528 33.1501 243.136 31.4762C244.397 30.6668 246.116 30.4523 247.337 31.7315C248.124 32.5567 248.829 33.1402 250.016 33.3176C251.138 33.4851 251.382 34.5169 251.06 35.5011C250.74 36.4781 249.978 37.2088 248.956 36.5648C247.917 35.9095 247.085 36.136 246.134 36.5757C245.385 36.922 244.49 36.8163 243.964 36.3501C242.456 35.0127 240.769 35.2638 239.013 35.3937C237.937 35.4733 236.779 35.4825 235.763 35.1743C225.299 31.9979 214.774 32.1279 204.187 34.4263C203.402 34.5967 202.539 34.4874 201.888 35.1153C202.213 35.7237 202.784 35.5444 203.251 35.6091C216.954 37.5084 230.7 39.147 244.355 41.3502C265.128 44.7019 285.867 48.2862 306.372 53.0845C307.819 53.423 309.253 53.6814 310.81 53.0963C322.735 48.6148 335.176 46.2231 347.696 44.1908C352.976 43.3338 358.272 42.5828 363.561 41.7836C362.045 41.0755 360.52 40.6942 358.972 40.508C353.561 39.8573 348.14 39.2992 342.728 38.6596C332.403 37.4393 322.082 36.192 311.761 34.9468C301.692 33.732 291.616 32.5602 281.557 31.27C270.497 29.8514 259.427 28.5547 248.298 27.8087C234.977 26.9157 221.646 26.2147 208.299 25.8977C206.445 25.8537 204.207 24.9678 203.142 27.5805C203.066 27.7678 202.539 27.8098 202.212 27.8512C196.803 28.5382 191.391 29.207 185.981 29.8951C181.87 30.418 177.762 30.9621 173.652 31.4968C176.14 32.1286 178.573 32.3565 181.374 33.7931C180.405 33.8832 180.09 33.9512 179.781 33.9352C176.931 33.788 174.18 32.8276 171.299 32.9208C170.275 32.9539 169.443 33.004 168.801 34.1376C167.818 35.8717 165.615 36.0159 164.468 34.3465C163.16 32.4431 162.325 32.5182 160.869 34.1935C160.137 35.0354 158.772 35.7526 157.443 34.8724C156.462 34.2222 155.929 33.2493 156.122 32.0666C156.341 30.7278 157.034 29.7327 158.516 29.5094C159.346 29.3844 160.165 29.1949 160.994 29.0595C173.247 27.0575 185.527 25.2538 197.899 24.1339C198.464 24.0827 199.316 24.3897 199.457 23.3754C194.97 20.6866 137.333 27.2873 131.773 30.0675C138.146 30.0119 144.971 29.621 151.74 30.8111C150.706 31.6244 149.577 31.4782 148.537 31.3376C143.17 30.612 137.806 30.7217 132.468 31.4424C127.758 32.0782 123.247 33.3386 119.674 36.7791C112.406 43.7764 105.293 50.9276 98.5851 58.4642C96.7218 60.5576 94.7843 62.6465 93.3509 65.1353C95.6422 66.2071 95.733 66.1575 97.191 64.2887C104.13 55.3948 111.656 47.03 119.854 39.2782C122.778 36.5129 126.253 35.1331 130.334 35.0455C135.811 34.9279 141.233 35.3678 146.645 36.1196C153.204 37.0308 159.767 37.919 166.329 38.8137C168.076 39.0519 168.858 39.9131 168.378 41.7446C164.722 55.7011 161.924 69.8551 158.689 83.9088C157.381 89.5913 157.431 89.6029 163.045 91.109ZM294.986 90.8006C294.714 88.8102 294.44 86.8201 294.17 84.8295C293.428 79.3493 292.536 73.8953 291.427 68.4754C290.761 65.218 288.858 63.3051 285.586 62.7056C283.524 62.3276 281.467 61.9105 279.418 61.4631C266.471 58.636 253.416 56.3824 240.383 54.0042C238.119 53.5911 237.439 54.2084 237.255 56.4115C236.118 70.0645 236.114 83.7628 235.55 97.4376C235.376 101.662 237.52 103.882 241.76 104.644C246.545 105.503 251.322 106.419 256.123 107.176C260.969 107.94 259.946 108.808 262.226 104.033C263.158 102.079 263.959 100.325 262.675 97.9478C261.392 95.5747 263.093 92.763 265.51 92.204C268.341 91.5493 270.913 93.2523 271.267 96.0157C271.607 98.6747 269.629 100.91 266.806 100.956C265.885 100.971 264.956 100.666 264.474 101.835C263.648 103.835 262.777 105.816 261.991 107.651C262.628 108.519 263.284 108.623 263.95 108.747C268.893 109.668 273.828 110.634 278.777 111.522C282.65 112.216 286.448 113.402 290.432 113.393C293.709 113.386 295.833 111.531 296.201 108.285C296.342 107.039 296.279 105.769 296.311 104.509C296.427 100.038 295.441 95.6673 294.986 90.8006ZM131.078 132.881C130.802 136.374 131.775 137.055 135.1 135.747C136.113 135.349 137.161 135.029 138.209 134.73C140.132 134.183 141.394 133.414 140.579 130.979C140.015 129.292 141.061 128.502 142.773 129.083C143.15 129.212 143.441 129.615 143.908 129.376C144.915 128.86 145.754 129.029 146.155 130.124C146.551 131.203 146.097 132.065 145.206 132.757C143.405 134.156 142.48 136.47 139.691 137.275C142.032 138.373 143.93 138.708 145.798 139.154C148.828 139.877 149.826 139.195 149.877 136.067C149.966 130.695 149.95 125.332 150.338 119.959C150.943 111.57 151.475 103.204 154.586 95.2607C154.77 94.7909 154.975 94.3188 154.552 93.5669C151.215 92.5694 147.558 92.131 143.965 91.3995C128.106 88.1704 112.001 86.1845 96.3319 81.9867C95.6215 81.7964 94.8504 81.4548 94.1167 81.8398C91.5174 83.2041 88.7028 82.9885 85.9589 82.8089C83.7192 82.6623 82.5582 83.3623 81.5564 85.4718C77.4308 94.1582 77.6513 103.402 77.8007 112.624C77.8451 115.368 78.2027 118.111 77.7778 121.026C78.8021 121.362 79.7443 121.679 80.6909 121.982C86.899 123.97 86.9956 123.686 86.727 117.194C86.5022 111.764 86.541 106.289 87.2058 100.856C87.5659 97.913 89.2335 96.1351 91.9722 95.2973C95.0215 94.3646 98.0723 93.4226 101.162 92.6399C103.921 91.941 106.448 91.2142 106.097 87.531C106.032 86.8436 106.512 86.2282 107.339 86.2122C108.249 86.1946 108.658 86.7455 108.827 87.5978C109.427 90.6375 107.859 93.4425 104.819 94.4218C101.064 95.6313 97.2753 96.7352 93.4914 97.8517C91.4179 98.4634 90.297 99.6856 90.0509 101.947C89.2933 108.909 89.8325 115.883 89.6677 122.849C89.645 123.809 90.0337 124.494 90.9767 124.747C97.8408 126.589 104.709 128.417 111.775 130.302C111.907 127.36 112.914 124.771 110.001 122.571C107.795 120.904 108.291 117.751 110.468 115.999C112.535 114.336 115.457 114.825 117.079 117.107C118.622 119.276 118.214 122.225 115.675 123.346C112.523 124.737 113.171 127.275 112.995 129.666C112.956 130.193 113.128 130.717 113.69 130.881C118.253 132.207 122.823 133.509 127.451 134.836C128.541 132.451 128.547 130.06 129.095 127.803C129.768 125.028 129.446 124.69 126.579 124.66C125.006 124.644 124.253 123.682 124.264 122.257C124.275 120.967 125.075 120.203 126.436 120.52C127.162 120.689 127.728 120.543 128.352 120.249C129.243 119.83 130.245 120.008 130.471 120.918C131.114 123.509 133.077 125.849 131.966 128.809C131.528 129.974 131.381 131.249 131.078 132.881ZM19.3436 73.2982C18.3133 73.6586 17.25 73.946 16.2587 74.3929C13.0382 75.8448 12.4627 77.1586 13.4816 80.4879C13.767 81.4204 13.5082 82.3194 13.2949 83.2153C12.809 85.256 12.3063 87.2927 11.8099 89.3309C11.1576 92.009 11.0636 94.8596 9.51929 97.2646C8.73541 98.4853 7.92001 99.5122 9.94973 100.382C11.8428 101.192 12.229 99.8425 12.5174 98.6499C14.0091 92.4822 17.5051 91.0833 24.4624 91.3349C29.0689 91.5015 33.5658 92.704 38.0773 93.672C46.5878 95.4981 53.2418 99.3673 56.7863 107.968C61.2688 118.845 65.3164 129.883 69.6262 140.822C69.7472 141.129 69.8095 141.468 69.3091 141.796C67.829 140.376 67.3068 138.435 66.6201 136.592C62.8375 126.445 59.2958 116.2 54.5564 106.439C52.9562 103.143 50.9449 100.048 47.5421 98.413C39.2462 94.4282 30.3985 92.5129 21.2322 92.575C16.4476 92.6075 12.6837 97.3404 13.4418 101.534C13.6048 101.534 13.8445 101.603 13.9175 101.522C14.2483 101.155 14.5957 100.778 14.8226 100.345C16.6221 96.9103 19.5 95.5745 23.3055 95.5869C28.419 95.6036 33.2049 97.2812 38.1388 98.1998C46.3492 99.7285 51.7147 104.439 54.8105 112.258C57.7473 119.675 60.6348 127.105 63.3987 134.588C66.3878 142.681 73.8058 147.532 82.6733 147.426C81.9492 144.352 80.4645 142.312 76.9065 142.031C74.99 141.879 72.8688 141.506 71.3257 139.912C74.2291 139.928 76.8775 141.43 80.1941 141.416C78.2853 137.253 76.9094 133.11 76.6385 128.917C76.2425 122.787 73.3133 119.844 67.4316 119.246C66.1356 119.114 64.8213 118.659 63.9969 117.452C67.4873 118.119 70.8519 119.089 74.2517 119.914C76.3123 120.414 77.0492 119.51 77.0001 117.389C76.7333 105.851 75.3341 94.1801 81.239 83.375C82.351 81.3402 80.3438 78.4383 78.1061 78.3187C62.8332 77.5024 47.549 77.1295 32.2549 77.1974C26.1717 77.2243 20.0748 76.9393 13.4401 78.2857C14.7387 76.7735 15.8862 76.6208 17.0176 76.5284C29.5228 75.5072 42.0356 75.9509 54.55 76.3284C62.4371 76.5664 70.3403 76.4131 78.1905 77.4386C79.7484 77.6421 80.4019 76.8309 80.2113 75.3616C80.0528 74.1392 81.038 72.3501 78.5337 72.2352C73.3367 71.9969 68.1496 71.431 62.9523 71.337C54.2127 71.1789 45.4646 71.1276 36.7272 71.3338C31.0351 71.4681 25.3382 71.9841 19.3436 73.2982ZM156.916 61.6347C158.597 56.1759 160.321 50.7294 161.945 45.2534C162.86 42.1667 162.749 42.0028 159.585 41.5821C151.609 40.5215 143.64 39.3611 135.635 38.5728C130.863 38.1028 125.947 38.0006 122.21 41.964C117.827 46.6112 113.437 51.2531 109.141 55.9795C106.779 58.5774 104.335 61.1437 103.447 64.7524C102.585 68.2556 101.388 71.67 100.717 75.2293C99.9529 79.2785 99.9254 79.1738 104.065 80.0177C118.278 82.9153 132.614 85.1278 146.867 87.7951C149.056 88.2048 149.884 87.6755 150.422 85.6183C152.483 77.738 154.674 69.8916 156.916 61.6347ZM365.812 66.4762C364.678 64.5078 362.626 63.7805 360.739 62.9582C358.925 62.1678 357.509 61.1647 357.008 59.1927C356.672 57.8728 355.872 57.8167 354.715 58.0422C343.838 60.1636 333.021 62.5246 322.478 65.9847C319.053 67.1084 318.668 67.8307 319.723 71.3994C322.769 81.6971 325.932 91.9597 328.535 102.384C329.347 105.636 330.191 108.892 331.264 112.063C332.859 116.774 334.733 117.686 339.499 116.455C340.881 116.098 342.259 115.723 343.647 115.391C346.763 114.645 347.062 114.277 346.529 111.071C346.013 107.967 345.921 104.88 346.745 101.833C347.086 100.572 346.978 99.553 346.045 98.6088C344.978 97.5289 344.214 98.6422 343.351 98.9396C340.674 99.8622 337.921 98.6266 337.217 96.1558C336.438 93.4164 337.967 90.9215 340.674 90.5165C343.637 90.0731 345.744 91.7519 346.003 94.7636C346.228 97.3777 347.286 98.0539 349.825 97.1277C357.013 94.5056 364.422 92.6154 371.851 90.896C375.479 90.0563 379.556 89.4901 381.796 94.0987C381.103 91.1752 379.527 88.6587 379.378 85.7759C379.2 82.3315 377.329 79.8848 375.148 77.4874C371.987 74.0147 368.396 70.9058 365.812 66.4762ZM256.78 113.578C255.625 113.359 254.467 113.155 253.316 112.918C249.955 112.225 249.433 112.83 249.058 116.171C248.36 122.379 249.488 128.743 247.246 135.048C258.686 138.773 265.613 147.301 271.14 157.834C272.75 155.205 274.033 153.055 275.373 150.94C276.228 149.592 276.623 148.499 275.537 146.863C274.45 145.225 274.511 143.089 276.046 141.511C277.515 140 279.373 139.55 281.36 140.484C283.472 141.477 284.136 143.284 283.907 145.493C283.686 147.636 282.273 149.247 280.371 149.106C277.644 148.905 276.962 150.65 275.951 152.336C275.043 153.85 274.26 155.458 273.196 156.853C271.908 158.541 272.112 160.064 272.713 161.989C273.759 165.34 275.731 167.255 279.193 167.801C280.592 168.021 281.925 168.64 283.318 168.935C284.527 169.191 285.725 170.196 287.012 168.815C288.22 167.519 287.636 166.427 287.096 165.171C286.34 163.411 286.89 161.811 288.171 160.566C289.369 159.402 290.868 158.916 292.581 159.501C294.86 160.279 296.223 162.331 295.873 164.536C295.532 166.687 293.878 168.016 291.375 168.112C289.995 168.166 288.384 167.803 288.257 170.238C293.741 171.678 299.17 173.291 305.045 174.157C305.304 170.267 305.58 166.617 305.783 162.963C306.21 155.256 306.865 147.572 308.021 139.938C308.451 137.094 307.701 135.909 304.913 136.372C301.981 136.86 298.951 136.031 296.108 137.221C295.625 137.423 295.056 137.329 294.765 136.835C294.021 135.574 292.787 135.518 291.531 135.249C289.072 134.722 286.665 133.959 284.23 133.315C282.772 132.93 281.993 131.949 281.604 130.545C280.764 127.515 280.749 124.401 280.74 121.304C280.734 119.142 279.751 118.099 277.708 117.703C270.868 116.377 264.04 114.995 256.78 113.578ZM228.778 116.967C229.205 114.574 229.655 112.185 230.051 109.787C230.304 108.253 229.912 107.321 228.088 106.999C221.564 105.849 215.076 104.498 208.566 103.27C197.69 101.219 186.807 99.207 175.93 97.1666C174.853 96.9647 173.832 96.8821 173.556 98.2531C172.229 104.827 170.911 111.404 170.909 118.155C170.908 118.844 170.93 119.546 171.664 119.884C174.95 121.395 174.713 124.158 174.172 126.992C173.7 129.463 173.121 131.914 172.628 134.381C172.075 137.147 172.658 138.253 175.394 139.119C177.307 139.725 179.298 140.095 181.266 140.512C183.511 140.989 185.841 140.055 186.46 138.305C187.464 135.469 190.239 135.013 191.817 133.088C192.591 132.144 193.823 132.191 194.724 133.108C195.694 134.096 195.417 135.018 194.395 135.889C193.605 136.562 192.841 137.24 191.489 137.455C192.231 138.102 192.618 138.562 193.108 138.844C194.515 139.656 195.131 140.819 194.077 142.137C193.04 143.434 192.128 142.201 191.393 141.508C190.144 140.33 188.857 140.069 187.655 141.361C185.311 143.881 182.457 143.769 179.497 143.107C176.268 142.385 175.211 143.236 175.199 146.921C180.893 148.459 186.637 150.011 192.381 151.559C193.423 151.839 194.167 151.517 194.612 150.488C195.511 148.409 196.563 146.388 197.345 144.267C200.699 135.165 208.279 128.602 220.072 129.992C221.985 130.218 223.88 130.597 225.781 130.918C227.33 131.179 228.205 130.746 228.099 128.967C227.868 125.097 228.402 121.258 228.778 116.967ZM182.427 91.6992C183.152 90.198 182.193 89.2175 181.436 88.0787C179.864 85.7134 180.718 82.5177 183.104 81.381C185.559 80.2118 188.488 81.2612 189.479 83.665C190.682 86.5834 189.569 89.3102 186.515 89.9472C183.899 90.493 183.429 92.0725 183.359 94.4127C184.318 94.654 185.19 94.9317 186.084 95.0891C190.541 95.8735 195.026 96.5175 199.453 97.4395C201.435 97.8522 202.001 97.0743 202.298 95.3823C203.053 91.093 203.832 86.8062 204.705 82.5397C206.841 72.1078 209.013 61.6829 211.234 51.2689C211.55 49.7847 211.235 49.0455 209.689 48.8273C207.614 48.5345 205.557 48.1246 203.486 47.8025C194.128 46.3471 184.763 44.9351 175.414 43.4292C173.806 43.1702 173.115 43.5551 172.875 45.2171C172.491 47.8723 171.889 50.4961 171.372 53.1319C171.227 53.8743 171.15 54.4251 171.88 55.1064C173.341 56.4703 174.536 57.1738 176.419 55.6764C178.174 54.2804 180.237 54.3875 182.006 55.8257C183.533 57.0677 184.334 58.6805 183.679 60.7296C183.003 62.8424 181.425 63.8147 179.343 64.0078C176.825 64.2414 174.876 62.5313 174.249 59.4675C173.898 57.7561 173.522 57.1034 171.606 58.14C170.293 58.8507 169.836 59.699 169.567 60.9555C167.982 68.3365 166.37 75.7114 164.787 83.0927C163.89 87.2719 164.472 88.4395 168.04 90.8482C171.567 93.2288 175.753 92.8975 179.605 93.9215C181.349 94.385 182.174 93.8075 182.427 91.6992ZM224.422 234.108C226.851 235.649 229.42 236.922 232.2 237.644C242.674 240.363 251.457 237.49 257.735 228.768C262.064 222.755 264.215 215.816 264.357 208.452C264.577 197.019 261.506 186.349 255.716 176.515C253.958 173.528 252.067 170.543 249.182 168.174C246.896 171.23 242.802 170.422 240.425 173.006C240.076 173.386 238.96 173.184 238.229 173.064C236.421 172.768 234.64 172.336 232.78 172.631C231.829 172.782 231.142 172.282 230.758 171.451C230.344 170.552 230.344 169.682 231.129 168.905C231.631 168.409 232.542 168.201 232.433 167.228C232.077 166.541 231.333 166.379 230.967 166.833C228.431 169.976 223.568 169.644 221.399 173.305C221.136 173.75 220.56 173.895 220.041 173.786C218.945 173.556 218.332 174.253 217.667 174.907C215.694 176.848 213.968 179.028 211.742 180.734C210.828 181.435 210.322 182.63 210.302 183.851C210.166 191.81 208.015 199.439 206.473 207.164C206.189 208.587 206.311 209.467 207.601 210.342C209.424 211.579 210.189 213.449 209.458 215.63C209.026 216.919 209.427 217.931 210.069 218.949C213.789 224.839 218.265 230.02 224.422 234.108ZM50.1084 169.687C52.2835 167.887 53.9264 165.663 55.1579 163.148C60.5453 152.148 60.1431 140.912 56.3161 129.61C53.8014 122.183 50.2249 115.404 43.815 110.484C36.6768 105.005 29.0913 105.039 22.7003 110.781C19.6942 113.482 17.9659 117.062 16.5571 120.788C13.8618 127.916 13.8841 135.261 15.0168 142.642C16.5296 152.498 20.5748 161.136 28.1454 167.804C35.7416 174.494 42.5957 175.057 50.1084 169.687ZM204.08 135.951C199.211 140.792 197.716 147.25 195.144 153.536C189.493 152.018 183.356 150.336 177.195 148.749C176.106 148.468 174.853 147.45 173.795 148.948C172.845 150.292 173.347 151.296 174.209 152.531C175.677 154.633 174.964 157.151 172.812 158.369C171.112 159.332 169.404 159.282 167.825 158.156C166.307 157.073 165.795 155.484 166.174 153.7C166.634 151.532 168.184 150.434 170.28 150.208C171.408 150.086 172.302 149.868 172.439 148.608C172.606 147.068 171.28 147.218 170.392 146.969C166.27 145.817 162.154 144.638 158.002 143.602C155.371 142.946 152.789 141.966 149.893 141.804C150.481 148.92 152.043 155.584 153.981 162.182C154.369 163.504 155.174 164.042 156.412 164.378C159.732 165.28 163.119 166.042 166.307 167.298C171.141 169.201 175.812 169.796 180.583 167.248C181.292 166.87 182.204 166.851 183.03 166.719C186.642 166.14 188.468 168.149 187.646 171.742C187.523 172.28 186.757 172.61 187.236 173.467C188.066 173.737 189.009 174.076 189.97 174.344C190.435 174.473 190.936 174.471 191.511 174.539C191.724 173.897 191.982 173.363 192.075 172.803C193.659 163.255 197.544 154.508 201.385 145.733C204.39 138.87 209.815 136.01 217.013 136.049C219.776 136.064 222.538 136.358 225.301 136.522C226.647 136.602 227.53 136.253 227.661 134.641C227.788 133.084 227.332 132.262 225.724 132.084C224.56 131.955 223.414 131.673 222.261 131.451C215.648 130.176 209.582 131.197 204.08 135.951ZM375.613 114.252C376.242 113.392 376.892 112.539 376.657 111.399C376.332 111.326 376.152 111.223 376.016 111.264C367.816 113.712 359.622 116.181 351.42 118.622C350.326 118.947 349.971 119.651 350.054 120.7C350.605 127.663 350.323 134.626 350.139 141.594C350.035 145.555 351.353 146.397 354.815 144.651C357.711 143.191 360.684 143.507 363.682 143.804C364.952 143.93 365.731 144.774 366.221 145.973C367.724 149.658 366.512 152.478 362.731 153.464C360.881 153.946 360.376 154.932 360.436 156.712C360.582 160.992 360.569 165.276 360.641 169.558C360.651 170.2 360.464 170.925 361.27 171.501C362.435 171.491 363.58 170.949 364.755 170.546C368.01 169.428 371.218 168.146 374.528 167.229C376.784 166.603 377.182 165.712 376.481 163.475C373.379 153.581 372.96 143.557 375.616 133.469C376.289 130.915 376.945 128.357 377.593 125.861C376.263 125.132 375.161 125.018 374.471 126.18C373.59 127.666 371.816 128.817 372.84 131.077C373.817 133.234 372.859 135.107 371.071 136.339C369.316 137.548 367.303 137.37 365.685 136.011C364.202 134.766 363.416 133.026 364.092 131.049C364.828 128.896 366.451 127.85 368.743 127.95C369.325 127.975 369.898 128.148 370.479 128.215C372.231 128.417 372.208 126.652 373.053 125.849C373.71 125.226 373.629 124.589 372.993 123.888C371.13 121.832 371.826 119.085 371.23 116.684C370.983 115.693 372.039 114.919 373.158 114.746C373.887 114.633 374.673 115.005 375.613 114.252ZM212.78 60.3234C210.369 72.9569 207.561 85.5223 205.888 98.5169C212.207 99.5941 218.217 100.617 224.227 101.644C225.74 101.903 226.113 101.036 226.19 99.7626C226.637 92.4054 227.057 85.0461 227.579 77.694C228.136 69.8434 228.749 61.9959 229.448 54.1568C229.592 52.5451 229.14 51.7963 227.568 51.5726C224.004 51.0655 220.44 50.5471 216.891 49.9448C215.492 49.7073 214.888 50.2288 214.627 51.5451C214.074 54.3386 213.446 57.1174 212.78 60.3234ZM170.304 139.184C169.344 137.196 169.384 135.13 169.826 133.034C170.379 130.41 170.962 127.792 171.472 125.159C171.627 124.354 171.79 123.395 170.749 122.991C167.845 121.863 164.065 124.548 164.022 127.718C163.992 129.907 162.87 131.413 160.851 132.091C158.868 132.758 157.231 132.028 156.006 130.361C154.854 128.793 154.572 127.149 155.669 125.442C156.936 123.472 158.864 122.94 160.952 123.557C162.473 124.006 164.011 124.189 164.879 122.947C166.105 121.193 167.915 119.501 167.97 117.286C168.127 111.046 169.243 104.962 170.471 98.887C170.82 97.1651 170.231 96.381 168.58 96.0876C165.361 95.5153 162.13 94.9789 158.95 94.2308C157.113 93.7988 156.294 94.2422 155.596 96.066C153.039 102.744 152.523 109.752 151.699 116.748C150.78 124.556 151.995 132.45 150.495 140.364C157.43 142.232 164.392 144.08 171.335 145.998C172.963 146.448 173.725 146.02 174.278 144.373C174.844 142.687 174.471 141.854 172.829 141.366C171.841 141.073 171.053 140.431 170.304 139.184ZM230.907 145.297C233.895 146.153 236.893 146.973 239.867 147.873C245.433 149.556 251.329 151.02 255.274 155.48C258.707 159.36 263.698 159.63 267.362 162.529C270.297 158.741 270.32 158.727 268.045 154.87C267.021 153.134 265.964 151.407 264.783 149.777C260.287 143.572 254.736 138.723 247.253 136.419C246.018 136.039 244.891 135.798 243.713 136.755C242.238 137.952 240.99 137.4 240.348 135.758C240.042 134.977 239.806 134.483 238.893 134.329C236.414 133.909 233.955 133.371 231.486 132.891C230.002 132.602 229 132.983 228.915 134.713C228.782 137.42 227.105 138.065 224.753 137.759C221.66 137.355 218.551 137.262 215.439 137.349C210.156 137.496 205.849 139.635 203.499 144.426C199.205 153.177 195.371 162.137 193.508 171.793C192.877 175.063 193.062 175.311 196.691 176.064C197.073 174.018 197.468 171.974 197.836 169.926C199.132 162.713 200.715 155.581 204.351 149.111C207.553 143.415 212.644 141.09 219.006 142.437C222.862 143.254 226.679 144.255 230.907 145.297ZM411.018 147.988C410.671 149.628 410.473 151.319 409.942 152.897C409.186 155.148 410.056 155.886 412.195 156.182C414.968 156.565 415.769 158.449 414.395 160.927C413.619 162.326 412.68 163.609 411.576 164.778C409.511 166.966 407.288 168.979 404.87 170.665C405.172 171.702 405.462 172.472 406.379 173.052C409.957 171.071 412.571 168.085 414.595 164.554C418.568 157.624 421.115 150.283 421.63 142.206C422.078 135.168 421.61 128.295 419.345 121.617C418.143 118.074 418.008 118.123 414.441 118.763C414.364 118.777 414.241 118.539 414.135 118.412C414.141 117.043 416.044 117.39 416.191 116.162C414.082 112.332 410.569 110.082 407.65 110.784C405.26 111.358 403.072 112.372 401.146 113.958C396.218 118.018 393.59 123.505 391.511 129.337C391.383 129.698 391.495 130.145 391.495 130.507C392.544 131.273 393.5 130.857 394.45 130.547C397.797 129.455 401.119 128.277 404.495 127.286C407.539 126.392 410.686 128.313 410.421 131.201C410.133 134.347 410.35 137.146 411.573 140.13C412.512 142.418 411.533 145.085 411.018 147.988ZM289.934 198.233C291.783 198.796 293.316 197.168 295.264 197.631C299.4 198.613 303.585 199.518 307.901 198.607C308.514 198.477 309.256 198.647 309.867 198.873C313.555 200.236 317.348 200.114 320.975 199.067C327.579 197.16 334.079 194.89 340.616 192.75C341.305 192.525 342.13 192.428 342.422 191.547C342.181 190.111 341.41 189.761 340.091 190.328C338.703 190.924 337.261 191.397 335.887 192.021C328.702 195.282 321.476 195.488 314.18 192.411C313.176 191.987 312.159 191.578 311.118 191.257C306.729 189.905 303.759 187.596 304.771 182.368C305.068 180.835 304.184 180.069 302.727 179.759C297.065 178.556 291.456 177.143 285.924 175.43C285.19 175.203 284.372 174.922 283.804 175.607C281.556 178.324 279.394 181.116 277.628 184.173C277.166 184.973 278.191 186.165 277.113 186.957C275.053 188.471 275.321 190.588 276.272 192.371C277.246 194.198 279.257 194.797 281.305 194.446C282.548 194.233 283.856 194.045 284.526 195.142C285.723 197.103 287.695 197.459 289.934 198.233ZM398.544 133.146C397.826 132.19 397.028 132.874 396.276 133.059C395.058 133.359 393.853 134.092 392.612 133.828C390.102 133.293 389.389 134.696 388.898 136.713C387.128 143.985 386.729 151.325 388.026 158.687C388.814 163.158 390.073 167.528 392.811 171.296C393.471 172.206 394.107 173.073 395.475 172.379C400.876 169.639 406.33 166.981 410.274 162.145C410.936 161.333 411.876 160.6 411.512 159.241C411.233 159.11 410.945 158.943 410.636 158.835C406.563 157.419 406.277 156.909 407.134 152.558C407.588 150.255 408.122 147.964 408.471 145.645C408.784 143.563 409.594 141.307 407.113 139.802C406.608 139.495 406.458 138.766 406.735 138.192C407.69 136.209 406.922 134.025 407.538 131.989C407.906 130.772 407.059 130.09 405.935 129.891C403.714 129.498 400.254 132.106 400.01 134.389C399.778 136.557 399.708 138.742 399.488 140.911C399.337 142.404 399.678 143.423 401.182 144.139C403.296 145.145 403.89 147.105 403.371 149.254C402.893 151.232 401.513 152.427 399.387 152.492C397.112 152.561 395.391 151.554 394.775 149.355C394.197 147.294 394.506 145.298 396.659 144.134C397.529 143.663 398.134 143.149 398.165 142.043C398.244 139.196 398.873 136.376 398.544 133.146ZM231.953 90.5302C231.755 95.0588 231.628 99.5922 231.324 104.114C231.205 105.882 231.746 106.564 233.513 107.01C241.347 108.989 249.405 109.449 257.338 110.738C258.399 110.91 259.603 110.986 259.512 109.164C258.935 108.983 258.399 108.752 257.838 108.649C252.231 107.616 246.618 106.61 241.008 105.584C236.45 104.751 234.644 102.64 234.627 98.0167C234.573 83.7342 235.161 69.4744 236.152 55.228C236.298 53.1325 237.024 52.1458 239.32 52.594C244.337 53.5733 249.393 54.3537 254.412 55.3223C264.705 57.3084 274.98 59.3917 285.272 61.3793C289.45 62.186 291.827 64.4088 292.671 68.7675C294.057 75.9255 295.124 83.1198 296.046 90.3427C296.756 95.9053 297.807 101.432 297.594 107.088C297.405 112.102 294.587 114.863 289.563 114.621C287.897 114.541 286.235 114.195 284.59 113.874C277.674 112.525 270.766 111.13 263.85 109.779C263.08 109.628 262.064 109.216 261.839 110.498C261.692 111.336 262.325 111.643 263.069 111.766C272.251 113.291 281.187 116.023 290.404 117.369C296.747 118.294 300.938 114.575 300.713 108.065C300.609 105.062 300.088 102.073 299.741 99.0794C298.566 88.932 297.293 78.7995 295.663 68.7112C294.843 63.6351 292.252 60.6994 287.059 59.5936C275.08 57.0428 263.042 54.8202 251.002 52.6032C246.631 51.7984 242.266 50.9651 237.892 50.176C234.926 49.6409 234.304 50.0982 234.062 53.1011C233.921 54.8577 234.061 56.6397 233.879 58.39C232.786 68.9124 232.555 79.4851 231.953 90.5302ZM397.693 69.9195C396.941 68.7832 396.642 67.2984 395.219 66.4702C391.35 71.5553 387.475 76.4148 383.906 81.4893C382.891 82.9318 381.664 84.7672 382.398 86.8134C384.261 92.0101 386.496 97.1057 385.816 102.82C386.437 102.885 386.7 102.988 386.915 102.925C393.113 101.099 399.305 99.2498 405.502 97.4219C407.722 96.7672 408.549 95.2674 408.362 93.0356C408.256 91.7636 407.989 90.5634 407.445 89.4005C404.418 82.9312 401.3 76.5074 397.693 69.9195ZM218.41 157.296C227.971 153.016 237.873 150.817 248.999 152.5C238.763 148.373 228.728 145.657 218.552 143.549C212.618 142.319 208.28 144.71 205.318 149.981C204.498 151.439 203.801 152.978 203.179 154.532C200.354 161.591 199.281 169.066 197.913 176.483C197.392 179.306 198.538 181.26 199.921 183.343C202.095 182.097 202.193 182.117 202.719 179.558C204.687 169.986 209.833 162.66 218.41 157.296ZM264.294 195.844C267.303 211.364 265.112 225.36 252.29 236.301C264.588 234.453 273.683 225.035 276.062 216.15C271.592 214.987 268.124 212.931 268.481 207.452C268.808 202.447 271.803 199.712 276.246 198.265C275.755 197.211 275.068 197.113 274.433 196.907C270.386 195.595 269.504 194.368 269.467 190.169C269.454 188.751 269.712 187.316 269.213 185.919C267.691 181.65 266.285 177.336 264.647 173.111C261.717 165.557 261.66 165.575 253.532 164.977C252.372 164.891 250.995 164.576 250.343 165.828C249.703 167.056 250.954 167.803 251.614 168.589C258.186 176.425 262.3 185.408 264.294 195.844ZM204.427 178.01C204.294 178.807 203.81 179.558 204.097 180.572C204.842 180.244 205.511 179.923 206.2 179.651C210.921 177.791 215.029 175.253 217.054 170.253C217.51 169.126 218.599 168.903 219.774 168.797C222.494 168.554 225.213 167.779 227.178 165.967C230.433 162.968 233.607 163.268 237.072 165.23C238.75 166.179 240.374 167.282 242.155 167.979C244.358 168.841 246.206 167.615 246.018 165.695C245.584 161.255 246.967 159.455 251.371 158.56C252.987 158.231 254.597 158.232 256.429 158.523C251.771 153.008 239.149 151.39 229.708 155.096C232.746 155.732 235.367 156.532 237.928 157.526C242.295 159.221 243.855 160.124 244.705 161.568C243.784 161.748 243.107 161.168 242.366 160.828C239.54 159.531 236.717 158.239 233.721 157.351C227.825 155.605 222.381 155.543 217.053 159.586C210.817 164.319 206.574 170.147 204.427 178.01ZM67.1685 163.007C69.7012 158.594 71.2401 153.804 72.4644 148.902C72.7437 147.783 73.2424 146.436 71.6597 145.898C65.9883 143.972 63.707 139.315 61.9278 134.166C59.7612 127.895 57.5284 121.643 54.8121 115.587C53.2374 112.076 52.0035 108.358 49.3895 105.396C48.6159 104.52 47.8353 103.396 46.5203 103.603C43.4535 104.086 40.319 104.325 36.95 105.59C41.8516 107.263 45.7164 109.77 48.6993 113.415C58.0091 124.791 61.7423 137.873 59.8278 152.402C58.7944 160.244 55.7312 167.237 48.8315 172.376C55.875 170.847 63.22 170.699 67.1685 163.007ZM379.558 125.607C379.262 126.105 378.873 126.569 378.682 127.105C375.775 135.278 374.508 143.732 375.387 152.337C375.894 157.294 376.657 162.33 379.211 166.826C381.547 170.937 387.706 174.12 392.246 173.502C392.471 173.052 392.233 172.674 392.002 172.34C387.475 165.79 386.289 158.317 386.04 150.605C385.877 145.547 386.58 140.576 387.915 135.702C388.35 134.114 388.5 132.852 386.569 132.044C385.293 131.511 384.683 130.242 384.492 128.801C383.971 124.872 383.85 124.804 379.558 125.607ZM381.539 52.6649C374.957 53.9539 368.374 55.2393 361.793 56.5368C361.018 56.6896 359.882 56.4864 359.855 57.6657C359.833 58.6158 360.451 59.3526 361.355 59.8301C362.689 60.5346 363.999 61.2879 365.285 62.0752C368.272 63.9028 370.302 63.0502 370.942 59.6678C371.375 57.3809 372.904 56.2425 375.496 56.2771C377.992 56.3104 379.796 57.7413 380.191 60.0011C380.538 61.984 379.313 63.9767 377.336 64.7873C375.483 65.5467 373.865 65.0493 372.377 63.9388C371.232 63.0837 370.326 63.5858 369.441 64.3112C368.543 65.0476 368.625 65.9024 369.293 66.7436C373.291 71.7839 377.993 76.1986 382.068 81.6684C386.184 76.2349 390.027 71.1576 393.878 66.0857C394.592 65.1451 394.482 64.3203 393.819 63.3474C392.115 60.8492 390.522 58.2765 388.874 55.7399C386.39 51.9136 386.262 51.8598 381.539 52.6649ZM390.385 185.857C389.484 187.069 388.223 187.664 386.792 188.004C383.73 188.733 382.468 187.495 383.08 184.427C383.295 183.346 384.011 182.919 384.891 182.547C385.77 182.174 386.93 182.218 387.299 181.034C385.679 179.569 385.496 179.428 384.091 180.179C376.777 184.087 368.684 185.875 360.989 188.74C356.705 190.335 352.22 191.383 347.855 193.29C349.258 194.079 355.907 196.265 356.654 195.972C359.389 194.903 360.916 195.43 360.493 199.043C376.905 193.456 392.462 186.684 408.511 179.542C406.69 178.117 407.315 174.787 404.022 175.41C401.918 175.808 399.821 175.909 397.765 175.649C393.967 175.169 391.227 177.435 387.76 178.756C391.528 180.338 391.753 180.948 390.385 185.857ZM361.402 96.5434C358.605 97.4365 355.826 98.396 353.004 99.2027C350.567 99.8994 349.36 101.572 349.117 103.924C348.789 107.095 349.058 110.251 349.811 113.328C350.874 113.642 351.737 113.27 352.613 113.015C359.783 110.93 366.957 108.86 374.122 106.757C379.929 105.053 379.924 105.036 379.556 98.939C379.226 93.4796 377.625 92.2849 372.256 93.6351C368.757 94.515 365.289 95.519 361.402 96.5434ZM118.315 150.025C122.598 151.599 126.882 153.173 131.803 154.981C130.946 153.352 130.14 153.007 129.376 152.76C124.083 151.048 121.81 147.52 122.75 141.991C123.002 140.505 122.375 139.422 121.251 138.489C119.146 136.742 116.764 135.579 114.158 134.798C113.154 134.497 111.77 134.414 111.644 133.068C111.499 131.513 110.475 131.183 109.317 130.876C103.482 129.331 97.647 127.782 91.8018 126.273C91.2034 126.119 90.5389 125.681 89.6866 126.425C89.8564 129.716 91.0517 132.674 93.9847 134.576C101.941 139.734 109.982 144.762 118.315 150.025ZM229.473 121.506C229.354 124.101 229.267 126.697 229.1 129.288C229.029 130.389 229.027 131.234 230.435 131.498C233.559 132.083 236.633 132.991 239.775 133.406C244.582 134.042 245.732 132.875 245.746 127.94C245.762 122.262 245.637 116.576 247.074 110.84C241.72 109.82 236.519 108.83 231.145 107.807C231.307 112.54 229.955 116.731 229.473 121.506ZM158.328 61.4293C157.908 63.0555 157.51 64.688 157.063 66.3068C155.251 72.8631 153.415 79.4126 151.613 85.9715C151.366 86.8715 150.661 87.8757 152.033 88.5815C154.632 89.9189 156.294 89.1635 156.886 86.3236C157.023 85.6671 157.146 85.0074 157.294 84.3535C160.47 70.3614 163.647 56.3694 166.83 42.3788C167.121 41.0994 167.207 40.1548 165.398 39.9298C156.674 38.8446 147.925 37.8747 139.258 36.4278C129.468 34.7935 121.877 37.6639 115.419 45.3408C109.913 51.8854 103.716 57.8621 98.4197 64.6201C97.6684 65.5788 96.8918 66.5626 97.5592 68.2608C98.2699 67.4034 98.8143 66.7969 99.3036 66.1487C105.644 57.7483 112.764 50.0289 119.95 42.3591C124.546 37.4538 130.227 36.4687 136.531 37.2609C141.412 37.8741 146.316 38.3072 151.182 39.0171C155.544 39.6536 159.969 40.0328 164.393 41.3905C162.371 48.0519 160.401 54.5437 158.328 61.4293ZM58.9442 69.9793C65.293 70.56 71.7 70.3296 78.0188 71.3737C79.0491 71.5439 80.3558 71.9002 81.0466 70.7648C82.9489 67.6383 86.1827 66.8469 89.3118 65.9321C92.2595 65.0704 93.3434 62.5334 94.9815 60.3369C74.1044 62.1097 53.7095 65.8883 33.3736 69.978C41.7327 69.978 50.0919 69.978 58.9442 69.9793ZM76.6272 123.125C77.6702 128.979 78.7688 134.815 81.1291 140.328C81.7043 141.672 82.5606 142.404 84.0259 142.779C91.5851 144.713 99.0223 147.067 106.439 149.487C109.02 150.329 111.647 151.031 114.253 151.797C113.758 150.753 113.092 150.128 112.335 149.647C106.172 145.733 100.083 141.689 93.7848 138.004C89.5422 135.521 87.5073 131.869 86.8082 127.272C86.5484 125.563 85.9275 124.554 84.1157 124.203C82.2306 123.838 80.4053 123.163 78.5549 122.62C77.9261 122.435 77.2827 122.04 76.6272 123.125ZM134.434 139.691C132.164 142.227 132.642 145.493 132.091 148.487C131.792 150.115 132.526 150.951 134.054 151.435C136.047 152.067 137.982 152.883 139.948 153.602C140.854 153.934 141.764 154.327 141.628 155.477C141.463 156.861 140.32 156.444 139.45 156.478C138.658 156.508 137.738 156.155 136.972 157.826C141.89 160.493 147.314 161.52 152.984 163.408C151.126 156.061 149.206 149.462 148.769 142.573C148.692 141.357 147.849 140.913 146.774 140.666C144.489 140.141 142.216 139.562 139.939 139.003C139.174 138.815 138.425 138.747 137.857 139.436C136.874 140.627 135.825 140.244 134.434 139.691ZM24.5931 107.756C30.8316 104.115 38.1518 104.363 45.0038 102.298C44.6536 101.928 44.519 101.663 44.3147 101.588C36.722 98.801 29.0074 96.5091 20.8002 97.0602C18.481 97.216 16.9484 98.9151 15.9357 101.008C15.3297 102.261 15.7446 102.919 17.0212 103.173C18.0258 103.373 19.1457 103.245 20.0454 104.112C19.1529 104.875 18.2271 104.686 17.5296 104.445C15.2878 103.673 14.7973 104.841 14.4395 106.702C13.8067 109.993 12.9313 113.236 12.2176 116.513C11.3116 120.673 11.8735 125.081 13.4838 127.171C15.1915 119.72 17.5505 112.611 24.5931 107.756ZM223.552 47.9587C207.81 45.3104 192.016 43.0702 175.905 41.5469C176.349 42.4523 176.932 42.3633 177.377 42.4343C189.619 44.3864 201.864 46.3194 214.111 48.2435C218.833 48.9854 223.56 49.6917 228.284 50.4273C230.091 50.7087 231.054 51.3064 230.604 53.5953C230.042 56.4512 230.146 59.4353 229.924 62.361C229.536 67.4593 229.056 72.5513 228.728 77.6532C228.243 85.1827 227.859 92.7187 227.431 100.252C227.329 102.05 228.158 102.658 230.047 102.231C230.232 100.784 230.599 99.3752 230.558 97.9783C230.392 92.3419 231.006 86.7393 231.178 81.1187C231.316 76.5963 231.764 72.0835 232.069 67.5661C232.425 62.2973 232.771 57.0279 233.131 51.7594C233.22 50.4594 232.987 49.3949 231.449 49.1574C228.964 48.7737 226.479 48.3876 223.552 47.9587ZM420.295 104.187C417.151 95.5346 413.355 87.1966 408.321 79.4532C408.556 80.242 408.905 80.9795 409.263 81.7124C410.997 85.2605 412.799 88.7817 413.799 92.6333C415.145 97.8178 413.915 100.023 408.802 101.312C401.875 103.059 395.056 105.142 388.306 107.477C384.712 108.721 384.211 109.32 384.244 113.295C396.796 101.639 408.147 104.637 418.932 116.665C419.599 114.153 419.303 112.119 418.99 110.079C418.683 108.076 418.42 106.072 420.295 104.187ZM428.436 150.992C429.22 154.889 426.751 159.669 423.401 161.595C420.457 163.288 416.883 164.065 414.682 166.866C412.802 169.259 410.927 171.643 408.353 173.278C406.398 174.52 407.538 175.625 408.183 176.835C408.885 178.152 409.498 179.272 411.44 178.33C416.205 176.019 420.791 173.404 425.315 170.667C426.992 169.653 427.948 168.109 428.381 166.235C429.306 162.235 430.058 158.201 430.432 154.109C430.972 148.201 430.946 148.232 425.42 146.464C423.876 145.97 423.232 146.463 423.065 147.997C424.689 149.141 426.837 149.152 428.436 150.992ZM12.8902 103.096C11.1664 102.236 9.47491 101.302 7.70955 100.538C5.93924 99.7714 4.41699 100.284 3.00512 101.78C5.99252 103.923 9.46804 104.363 12.5624 105.712C8.61604 106.32 5.34212 104.17 1.58521 103.024C1.12926 106.108 0.975563 108.958 1.59719 111.565C2.31355 114.569 6.14848 114.437 8.30284 116.623C5.83003 117.022 4.3394 115.208 2.22081 114.831C3.15655 120.86 6.18779 125.047 11.7252 127.715C10.5724 124.167 10.247 120.699 10.8992 117.223C11.5939 113.521 12.4781 109.855 13.2879 106.175C13.5002 105.21 14.01 104.243 12.8902 103.096ZM397.139 116.123C399.791 112.659 403.375 110.56 407.914 109.397C398.703 104.205 385.38 108.793 381.264 121.975C383.758 122.257 386.1 122.446 388 120.09C389.142 118.675 390.29 117.538 390.047 115.515C389.879 114.122 390.749 113.24 392.189 113.392C393.44 113.524 394.352 114.404 393.805 115.659C392.729 118.126 392.126 120.847 389.431 122.433C387.271 123.705 386.992 128.038 388.616 130.051C388.736 130.2 389.075 130.172 389.536 130.278C391.739 125.526 393.503 120.511 397.139 116.123ZM333.543 189.677C335.377 188.951 337.395 188.633 338.981 187.362C337.737 184.559 337.516 184.399 335.105 184.85C330.234 185.759 325.43 185.424 320.65 184.215C316.616 183.194 312.566 182.239 308.287 181.197C308.045 183.457 306.442 185.688 309.169 186.998C316.822 190.675 324.586 193.898 333.543 189.677ZM328.97 148.028C328.783 145.436 328.687 142.832 328.369 140.256C328.218 139.034 328.281 137.178 326.313 137.412C323.422 137.756 320.481 138.015 317.729 139.091C316.694 139.496 315.862 140.22 315.434 141.306C314.436 143.842 314.13 146.49 314.155 149.192C314.164 150.174 314.728 150.781 315.589 151.042C319.543 152.238 323.499 152.34 327.451 150.976C328.7 150.546 329.121 149.684 328.97 148.028ZM356.707 198.912C354.341 198.352 351.861 198.074 349.631 197.174C344.608 195.146 339.843 196.476 335.067 197.865C333.284 198.384 332.708 199.926 332.957 201.688C333.157 203.094 333.616 204.467 333.764 205.875C333.933 207.469 334.598 207.908 336.1 207.388C338.398 206.592 340.735 205.909 343.039 205.129C347.493 203.623 351.943 202.108 356.37 200.528C356.922 200.331 358.891 200.366 356.707 198.912ZM345.608 188.161C344.746 188.606 343.64 188.681 343.168 189.716C344.399 191.626 344.409 191.637 346.821 190.829C356.212 187.683 365.61 184.548 374.81 180.879C376.954 180.024 379.706 179.938 380.856 177.267C380.966 177.011 381.651 176.76 381.941 176.864C384.928 177.93 386.86 175.573 389.291 174.764C387.143 174.436 385.369 172.646 383.008 173.571C370.665 178.407 358.303 183.196 345.608 188.161ZM390.213 105.596C390.447 105.502 390.677 105.396 390.915 105.317C396.806 103.368 402.723 101.52 408.777 100.119C412.789 99.1901 413.852 97.3175 412.784 93.3132C412.439 92.0226 412.004 90.7416 411.467 89.5192C407.75 81.0548 403.324 72.9619 398.505 65.0807C398.191 64.5666 398.118 63.7366 397.237 63.7196C396.531 65.2557 396.511 65.2675 397.414 66.853C401.487 74.0032 405.358 81.2744 408.464 88.8873C411.476 96.2728 408.986 98.0383 403.633 99.2441C403.307 99.3177 402.985 99.4147 402.663 99.511C397.605 101.029 392.542 102.533 387.491 104.077C386.17 104.481 384.99 105.074 385.669 107.038C387.139 106.572 388.488 106.144 390.213 105.596ZM382.04 172.322C381.162 171.317 380.163 170.392 379.436 169.287C378.364 167.658 377.166 167.44 375.374 168.112C371.134 169.701 366.819 171.093 362.538 172.573C361.676 172.871 360.553 173.019 360.366 174.066C359.899 176.689 359.16 179.216 357.717 181.945C360.722 181.31 363.081 180.272 365.429 179.276C370.903 176.952 376.664 175.344 382.04 172.322ZM313.653 156.166C313.584 157 313.654 157.876 313.418 158.66C312.704 161.03 313.807 162.163 315.963 162.554C319.614 163.216 323.27 163.464 326.88 162.274C327.763 161.982 328.808 161.697 328.878 160.619C329.058 157.823 329.151 155.014 328.786 151.846C323.693 153.755 318.871 153.374 313.89 151.885C313.8 153.415 313.732 154.572 313.653 156.166ZM337.719 158.232C339.469 158.869 341.257 159.371 343.112 158.834C347.453 157.576 351.778 156.257 356.108 154.961C357.69 154.487 358.11 153.538 357.208 152.12C356.71 151.339 356.099 150.63 356.609 149.599C356.887 149.035 357.485 148.421 356.818 147.786C356.076 147.078 355.278 147.519 354.475 147.783C352.115 148.562 349.604 149.635 347.317 149.69C343.21 149.788 340.238 151.884 337.155 153.854C335.302 155.039 335.573 156.575 337.719 158.232ZM151.332 89.8596C135.151 86.6552 118.812 84.3239 102.666 80.9224C98.9236 80.134 98.4182 79.6396 99.2784 75.9136C100.089 72.4024 100.975 68.9085 101.8 65.5194C95.7857 69.1494 97.6836 75.3337 96.9042 80.8086C98.5944 81.3026 100.405 81.9977 102.279 82.3534C119.39 85.6006 136.51 88.7928 153.631 91.982C154.489 92.1418 155.53 92.4631 155.831 90.7044C154.472 90.4409 153.113 90.1775 151.332 89.8596ZM319.474 208.64C321.724 208.864 323.952 209.222 326.237 209.181C332.71 209.064 333.035 208.734 331.994 202.488C331.98 202.405 331.978 202.32 331.962 202.238C331.501 199.881 330.602 199.275 328.271 199.833C322.62 201.184 317.361 203.661 311.904 205.572C311.255 205.8 310.469 206.027 310.105 207.077C313.13 207.592 316.079 208.094 319.474 208.64ZM326.401 171.513C328.662 170.211 329.347 166.837 327.966 163.221C323.224 165.044 318.355 164.259 313.571 163.39C312.895 165.161 313.11 166.688 313.006 168.18C312.853 170.36 313.86 171.561 315.953 172.204C319.413 173.268 322.735 172.963 326.401 171.513ZM113.069 160.742C122.138 163.46 131.222 166.129 140.264 168.932C142.376 169.586 143.421 168.999 143.934 166.941C143.665 166.781 143.474 166.609 143.252 166.544C131.925 163.211 120.593 159.893 109.267 156.556C107.57 156.056 106.754 156.707 106.547 158.469C108.465 159.612 110.675 159.848 113.069 160.742ZM276.747 168.296C272.87 167.643 272.567 163.951 270.789 160.627C270.184 162.455 269.011 163.359 270.125 164.837C273.01 168.662 273.747 173.178 274.497 177.761C274.818 179.721 274.232 181.961 275.958 184.106C278.236 180.879 280.365 177.863 282.585 174.719C280.463 173.263 277.932 173.484 276.356 171.616C278.058 171.825 279.709 172.229 281.277 172.844C283.402 173.677 284.582 173.003 285.196 170.718C282.431 169.934 279.779 169.181 276.747 168.296ZM311.683 177.289C311.437 177.238 311.187 177.199 310.945 177.133C309.91 176.848 308.747 176.227 308.267 177.839C307.818 179.348 308.77 179.987 310.038 180.323C311.817 180.794 313.602 181.242 315.383 181.704C321.231 183.222 327.084 184.713 333.216 183.958C333.892 183.875 334.778 184.161 335.146 182.913C333.57 182.181 332.03 181.348 330.404 180.747C329.195 180.3 328.233 179.694 328.089 178.391C327.879 176.497 326.85 176.522 325.437 176.997C321.031 178.479 316.575 178.64 311.683 177.289ZM145.437 170.514C155.166 173.449 164.909 176.341 174.615 179.353C176.752 180.016 177.546 179.269 177.84 177.037C174.691 176.037 171.6 175.023 168.488 174.075C161.421 171.921 154.347 169.79 147.266 167.682C146.507 167.456 145.591 167.015 145.01 168.028C144.566 168.804 143.866 169.648 145.437 170.514ZM89.1744 80.4874C90.7186 80.0972 92.3046 79.8222 93.7949 79.2828C95.161 78.7884 96.4005 77.9747 96.3223 76.2138C96.2143 73.7809 96.0826 71.3491 95.9478 68.9176C95.9104 68.2431 95.8734 67.5677 95.0174 67.3367C93.1286 66.8269 87.9672 69.206 87.2483 71.0209C86.3402 73.3135 85.9668 75.7123 86.183 78.1801C86.3194 79.7367 87.0122 80.7245 89.1744 80.4874ZM192.496 98.8979C204.898 101.28 217.3 103.662 229.746 106.053C230.308 104.57 229.919 103.854 228.674 103.589C227.772 103.397 226.866 103.218 225.956 103.069C209.605 100.397 193.26 97.6911 176.98 94.6086C175.906 94.4053 174.745 94.0955 173.56 94.9047C179.565 97.0024 185.866 97.6896 192.496 98.8979ZM208.423 190.34C208.626 188.338 208.926 186.341 209.005 184.335C209.077 182.506 208.218 181.935 206.437 182.728C204.376 183.645 202.961 184.836 202.836 187.348C202.693 190.209 202.468 193.086 202.82 195.908C203.226 199.174 203.611 202.506 205.313 205.998C206.831 200.69 207.489 195.71 208.423 190.34ZM382.273 49.5996C375.344 50.3122 368.593 52.0451 361.74 53.197C360.698 53.3722 359.761 53.9784 359.69 55.4934C360.65 55.3967 361.478 55.3769 362.28 55.2221C367.634 54.1894 372.992 53.1805 378.328 52.0635C386.902 50.2691 387.133 50.3684 391.728 57.7393C392.893 59.6082 393.736 61.7513 395.576 63.1685C396.923 62.1576 396.132 61.2439 395.627 60.4594C393.854 57.7075 392.047 54.9755 390.179 52.288C387.956 49.091 386.501 48.5932 382.273 49.5996ZM75.0851 148.93C75.8432 149.288 76.5704 149.748 77.3642 149.986C86.0271 152.59 94.7028 155.15 103.369 157.743C105.159 158.279 105.533 157.218 105.886 155.526C102.494 154.581 99.2114 153.661 95.926 152.751C89.3892 150.94 82.851 149.134 76.3136 147.325C75.6054 147.129 74.8396 146.669 74.2854 147.538C73.9325 148.092 74.3276 148.467 75.0851 148.93ZM283.293 206.4C285.579 205.506 287.564 206.709 289.683 207.36C288.771 208.244 287.25 208.11 286.501 209.229C285.574 210.615 284.374 210.817 282.789 210.411C280.491 209.823 279.367 210.875 279.326 213.833C284.148 212.432 288.849 211.065 293.551 209.703C294.732 209.36 294.665 208.402 294.702 207.466C294.745 206.402 294.166 205.963 293.206 205.822C291.965 205.639 290.73 205.405 289.487 205.239C286.184 204.796 283.131 203.518 279.934 202.049C279.821 203.086 279.653 203.748 279.7 204.394C279.774 205.425 279.021 206.737 280.197 207.423C281.23 208.025 281.993 206.796 283.293 206.4ZM369.012 112.175C371.403 111.409 373.786 110.617 376.188 109.887C377.617 109.453 378.485 108.703 378.272 106.954C377.645 107.027 377.137 107.015 376.673 107.151C368.324 109.602 359.98 112.068 351.638 114.538C350.691 114.818 349.406 114.98 349.788 116.375C350.212 117.92 351.469 117.358 352.498 117.055C357.875 115.473 363.248 113.875 369.012 112.175ZM304.753 178.619C305.798 176.779 305.348 175.695 303.218 175.192C298.413 174.056 293.614 172.882 288.846 171.599C286.818 171.053 285.867 171.715 285.505 174.03C291.757 175.969 297.991 177.735 304.753 178.619ZM187.056 179.746C185.287 179.238 183.461 178.874 181.765 178.188C179.566 177.299 178.716 178.234 178.197 180.516C184.931 182.179 191.25 184.905 198.093 186.186C196.855 182.377 193.882 181.535 190.834 180.783C189.698 180.503 188.581 180.148 187.056 179.746ZM211.814 54.8096C210.776 59.8864 209.84 64.9864 208.677 70.0346C206.744 78.4333 204.844 86.8354 203.472 95.3484C203.322 96.281 202.791 97.2677 204.441 98.4406C207.302 82.0713 210.228 66.0909 213.297 50.1364C212.059 51.3709 212.325 52.9707 211.814 54.8096ZM149.206 165.31C148.437 165.225 147.637 164.55 146.391 165.987C157.206 169.691 167.994 172.391 178.575 175.931C178.904 174.423 178.306 173.943 177.273 173.639C168.031 170.918 158.796 168.169 149.206 165.31ZM271.427 209.649C271.791 210.481 272.056 211.413 273.36 211.481C274.203 210.249 275.501 209.554 276.944 209.054C277.76 208.771 278.486 208.285 278.501 207.297C278.532 205.248 278.866 203.146 277.722 201.262C272.862 202.109 271.461 203.897 271.427 209.649ZM296.582 204.948C297.306 205.149 298.018 205.433 298.756 205.537C301.919 205.984 305.215 207.408 307.83 204.041C308.33 203.397 309.503 203.276 310.474 202.867C306.715 202.379 303.087 201.774 299.434 201.48C296.971 201.282 296.147 202.321 296.582 204.948ZM82.7113 70.6641C81.2055 73.4111 80.6081 76.272 81.7145 79.3102C82.3653 81.0972 83.4732 82.028 85.605 81.1543C84.3442 76.3881 84.7859 71.9439 87.8094 67.7101C85.6926 68.251 84.138 68.9955 82.7113 70.6641ZM422.052 156.092C425.929 157.629 426.669 157.338 427.334 154.095C427.705 152.282 427.312 150.878 425.362 150.374C424.276 150.093 422.739 148.581 422.13 150.308C421.535 151.995 419.327 153.906 422.052 156.092ZM360.735 148.407C361.78 149.786 359.724 151.063 360.646 152.577C362.368 152.447 364.283 152.452 365.091 150.579C365.757 149.035 365.876 147.14 364.631 145.812C363.203 144.289 361.288 144.832 359.462 145.164C359.513 146.367 360.07 147.204 360.735 148.407ZM292.323 202.835C291.255 201.194 284.786 199.021 282.799 199.679C282.221 199.871 281.414 199.865 281.312 201.018C283.965 202.885 287.103 203.581 290.295 204.126C291.168 204.275 291.704 203.775 292.323 202.835ZM181.13 176.726C185.744 177.991 190.258 179.65 195.218 180.57C194.803 179.043 194.062 178.091 192.968 177.946C189.28 177.459 185.809 176.16 182.22 175.32C181.385 175.124 180.367 175.037 181.13 176.726ZM116.309 118.319C115.063 116.586 113.532 115.557 111.457 116.866C110.061 117.746 109.451 119.11 110.198 120.745C110.994 122.486 112.429 123.271 114.272 122.757C116.307 122.191 116.942 120.679 116.309 118.319ZM420.148 108.841C419.997 110.769 420.433 112.645 420.648 114.542C420.719 115.161 420.855 115.708 421.608 115.777C422.335 115.844 422.902 115.626 423.227 114.905C424.219 112.704 422.935 107.86 420.922 106.308C419.879 106.713 420.108 107.608 420.148 108.841ZM424.592 159.058C423.533 157.229 421.509 157.51 419.869 156.664C418.811 158.961 417.841 161.065 416.54 163.89C419.608 162.136 422.042 160.745 424.592 159.058ZM161.923 125.465C160.3 124.366 158.636 124.125 157.14 125.58C156.074 126.617 155.9 127.97 156.748 129.239C157.791 130.801 159.283 131.443 161.081 130.644C162.754 129.9 163.173 127.796 161.923 125.465ZM124.155 137.208C125.699 138.863 126.147 140.749 125.647 142.983C125.305 144.512 125.223 146.121 126.513 147.703C126.701 144.175 126.798 140.863 127.488 137.623C127.686 136.692 127.341 136.155 126.504 135.907C125.092 135.488 123.738 134.783 122.141 134.828C122.291 136.027 123.243 136.369 124.155 137.208ZM384.581 184.346C384.383 185.367 383.734 186.756 385.407 186.897C386.899 187.024 388.441 186.415 389.349 185.089C390.223 183.813 390.443 182.387 389.118 180.596C388.217 182.691 386.433 183.248 384.581 184.346ZM192.292 7.4474C192.778 7.55443 193.266 7.76092 193.749 7.75067C195.513 7.71327 196.485 6.69173 196.754 5.02163C197.031 3.30188 196.265 2.11073 194.638 1.54327C193.087 1.00232 191.737 1.51348 191.007 2.89593C190.157 4.50453 190.319 6.1121 192.292 7.4474ZM168.744 155.021C169.049 153.836 169.18 152.508 170.962 152.331C171.457 154.072 172.277 155.671 170.953 157.847C173.138 156.955 173.95 155.824 173.566 154.099C173.225 152.571 172.214 151.576 170.568 151.529C169.07 151.486 167.91 152.178 167.523 153.66C167.114 155.223 167.38 156.625 169.357 157.431C169.108 156.601 168.925 155.987 168.744 155.021ZM167.023 201.435C168.15 201.413 169.133 201.09 169.97 199.952C169.062 200.231 167.553 200.325 167.808 199.868C168.689 198.287 166.162 196.252 168.904 195.208C166.585 194.349 164.79 194.994 164.104 196.697C163.396 198.458 164.401 200.274 167.023 201.435ZM422.772 123.814C423.233 123.77 423.702 123.527 423.659 123.093C423.459 121.063 423.671 118.977 423.087 116.999C421.68 116.985 420.839 117.34 420.628 118.748C420.324 120.779 420.38 122.606 422.772 123.814ZM186.709 27.2037C188.39 26.9393 190.071 26.6749 191.752 26.4105C182.703 27.2848 173.661 28.1201 164.778 30.1125C171.94 29.1612 179.102 28.2099 186.709 27.2037ZM267.287 176.53C267.51 177.124 267.733 177.719 268.184 178.921C267.365 169.905 267.034 169.047 263.934 167.707C265.048 170.602 266.121 173.392 267.287 176.53ZM421.809 125.763C422.288 128.786 422.767 131.808 423.301 135.178C423.733 133.663 424.069 126.794 423.821 125.926C423.445 124.611 422.716 124.697 421.809 125.763ZM404.916 48.0557C403.787 48.1625 402.815 48.5262 402.096 49.9843C403.009 49.5051 403.852 48.5257 404.375 49.5988C404.822 50.5176 405.196 51.5981 404.646 52.7243C403.953 54.1416 403.036 52.312 401.983 53.1938C403.656 54.8157 405.294 54.6816 407.234 53.6663C406.587 53.3051 405.79 53.8528 405.449 53.0872C407.034 51.5145 404.415 49.7106 405.716 48.1148C405.55 48.0955 405.383 48.0762 404.916 48.0557ZM416.154 192.288C415.54 191.479 414.677 191.608 413.796 191.503C412.846 191.39 411.687 190.937 411.857 189.666C412.006 188.548 412.312 187.221 413.919 187.339C414.682 187.396 415.246 187.103 416.003 186.837C414.169 186.114 412.705 186.202 411.722 187.931C411.054 189.105 410.765 190.374 411.764 191.435C412.887 192.628 414.225 193.539 416.154 192.288ZM404.126 173.865C404.538 172.446 404.043 171.378 402.559 171.919C401.112 172.447 399.553 173.111 398.256 174.543C400.4 175.195 402.115 174.617 404.126 173.865ZM376.848 120.811C376.185 121.116 375.517 119.851 374.766 120.904C375.165 122.512 376.467 122.386 377.717 122.393C379.841 122.404 379.886 120.557 380.956 119.076C379.431 119.763 378.08 119.721 376.848 120.811ZM372.192 60.1835C372.274 60.8006 371.913 61.6114 372.729 61.9123C372.993 62.0098 373.676 61.6999 373.751 61.451C374.009 60.5939 374.017 59.6948 373.269 59.1649C374.118 57.3442 376.293 60.0864 377.009 57.8926C374.678 56.7168 373.416 57.2454 372.192 60.1835ZM332.596 222.001C334.021 221.958 334.356 220.861 333.54 218.917C334.127 218.341 334.803 218.77 335.437 218.717C336.091 218.662 336.726 218.377 337.725 218.091C333.902 216.847 332.183 218.215 332.596 222.001ZM12.4471 81.0029C11.6534 79.7206 11.2811 80.5389 11.0762 81.3371C10.5016 83.5756 10.1924 85.8496 10.7228 88.2355C11.3219 85.9275 11.921 83.6195 12.4471 81.0029ZM342.704 92.6991C343.031 92.6788 343.358 92.6585 343.72 92.6361C341.646 91.1535 340 91.2245 338.866 92.92C338.101 94.0627 337.984 95.2076 339.521 96.6602C339.521 95.0248 339.521 94.0366 339.521 93.0974C340.467 92.3285 341.538 93.6041 342.704 92.6991ZM367.203 212.102C368.302 211.07 366.719 209.868 367.359 208.805C368.408 208.1 370.06 209.817 370.798 207.828C369.063 207.049 367.579 207.61 366.616 208.93C365.924 209.877 365.524 211.261 367.203 212.102ZM291.18 232.085C290.9 233.346 290.747 234.513 292.702 234.164C292.558 233.124 292.415 232.09 292.295 231.227C293.353 230.101 295.052 232.404 295.73 230.185C293.708 229.328 292.345 230.073 291.18 232.085ZM434.556 110.968C434.054 111.513 433.556 112.059 433.725 112.929C434.587 112.553 434.595 111.158 435.858 111.318C436.658 111.801 436.006 113.205 437.177 113.524C438.687 112.958 436.242 110.799 438.747 110.645C437.13 109.835 435.954 110.016 434.556 110.968ZM178.463 172.439C179.678 170.725 182.442 171.79 183.959 169.264C181.097 170.111 178.81 170.681 176.28 171.923C177.232 172.226 177.701 172.374 178.463 172.439ZM345.39 168.609C343.854 168.803 342.702 169.488 342.435 171.126C342.29 172.017 342.444 172.826 343.645 172.821C343.665 171.071 344.078 170.588 346.049 169.845C346.399 169.713 346.879 169.433 346.583 168.944C346.455 168.733 346.012 168.712 345.39 168.609ZM371.755 131.63C370.487 129.179 369.621 128.82 367.458 129.884C367.836 130.66 368.789 131.103 368.714 132.294C369.061 131.391 369.387 130.733 370.681 130.582C371.225 130.507 370.311 132.691 371.755 131.63ZM280.259 240.543C282.732 240.489 281.859 242.303 281.663 244.209C282.859 242.404 282.748 241.231 281.686 240.303C280.378 239.159 278.902 238.924 277.241 240.185C278.245 240.347 278.962 241.087 280.259 240.543ZM298.554 208.245C299.243 208.09 300.036 208.189 300.52 207.444C299.863 206.85 299.069 206.614 298.255 206.55C297.536 206.492 296.708 206.365 296.236 207.128C296.089 207.365 296.064 207.831 296.201 208.065C296.732 208.97 297.525 208.296 298.554 208.245ZM336.423 222.383C337.322 221.666 337.725 221.029 335.954 220.642C336.085 221.864 335.389 222.757 334.726 223.686C335.857 224.619 336.676 224.137 337.567 223.515C337.128 223.202 336.756 222.937 336.423 222.383ZM380.902 111.705C380.851 111.563 380.799 111.422 380.748 111.281C380.672 111.309 380.557 111.314 380.526 111.368C379.488 113.151 378.458 114.938 377.427 116.724C379.459 115.685 380.134 113.819 380.902 111.705ZM368.199 213.323C369.537 214.408 369.593 214.412 371.462 213.272C371.716 213.118 372.064 212.985 371.959 212.544C371.354 212.665 370.842 213.39 370.112 212.804C369.856 212.26 370.457 211.456 369.426 210.912C369.399 211.828 369.299 212.727 368.199 213.323ZM183.75 86.6212C183.126 85.7585 184.131 84.1443 182.439 83.7703C181.298 86.2068 181.471 86.6469 183.75 86.6212ZM366.751 133.729C367.056 132.48 366.221 131.49 365.927 129.925C365.449 131.62 363.962 133.029 366.751 133.729ZM434.444 115.541C436.324 116.753 436.324 116.753 438.533 115.791C436.984 115.88 435.719 115.004 434.444 115.541ZM185.943 88.9123C186.663 88.5561 187.543 88.4543 188.284 87.0731C187.186 87.9538 186.439 88.2389 185.581 87.707C185.095 87.4052 184.486 87.762 184.43 88.2483C184.332 89.1032 185.068 89.0079 185.943 88.9123ZM289.902 163.173C289.343 162.97 288.783 162.767 288.19 162.552C287.955 163.435 287.764 164.138 288.35 164.797C289.245 164.734 289.57 164.075 289.902 163.173ZM278.696 246.265C279.611 246.479 280.265 246.062 280.855 245.419C279.508 244.524 278.192 245.193 276.647 245.26C277.387 245.624 277.901 245.878 278.696 246.265Z" fill="#EBFFEA"/>
<path d="M176.501 61.6089C176.266 60.048 175.613 58.4299 177.38 57.0358C178.729 56.9531 178.277 58.3474 179.007 58.6033C179.845 58.337 180.193 57.255 181.256 57.6237C181.839 58.4844 182.241 59.4469 182.343 60.5268C182.343 60.5268 182.355 60.502 182.226 60.5835C180.231 60.9797 178.366 61.2943 176.501 61.6089Z" fill="#EBFFEA"/>
<path d="M335.817 141.888C335.102 140.567 335.582 139.229 335.981 137.714C338.566 136.882 338.185 138.933 338.724 140.275C338.741 140.717 338.749 140.97 338.62 141.321C337.724 142.318 336.843 142.515 335.817 141.888Z" fill="#EBFFEA"/>
<path d="M338.761 141.223C338.752 140.97 338.743 140.717 338.699 140.079C338.506 138.162 339.102 137.375 340.726 137.6C341.544 138.843 341.823 140.126 340.768 141.633C339.804 142.019 339.159 142.016 338.761 141.223Z" fill="#EBFFEA"/>
<path d="M269.16 98.8088C268.15 99.0364 267.264 99.1633 266.684 97.9857C268.977 97.3932 266.977 96.0242 267.906 94.8767C269.171 94.4469 269.171 94.4469 269.777 98.0059C269.626 98.337 269.459 98.5111 269.16 98.8088Z" fill="#EBFFEA"/>
<path d="M205.18 212.986C205.475 212.291 205.972 211.832 206.928 211.861C207.21 211.958 207.312 212.051 207.477 212.225C207.056 213.503 207.591 214.956 206.615 216.287C205.487 215.383 206.295 213.843 205.18 212.986Z" fill="#EBFFEA"/>
<path d="M135.784 177.647C137.879 178.667 138.059 180.406 136.12 182.064C135.923 182.08 135.936 182.093 135.971 181.919C136.497 180.377 136.036 179.15 135.445 177.942C135.53 177.857 135.619 177.777 135.784 177.647Z" fill="#EBFFEA"/>
<path d="M139.023 97.032C140.369 97.4998 141.424 98.1807 141.909 99.2523C142.612 100.805 143.567 101.772 145.255 102.253C146.555 102.624 146.836 103.882 146.666 105.159C146.485 106.519 145.564 107.049 144.345 106.864C143.333 106.71 142.797 107.296 142.138 107.795C138.422 110.606 134.426 109.676 132.37 105.468C131.913 104.533 131.536 103.735 130.415 103.378C129.301 103.023 128.979 102.029 129.22 100.913C129.461 99.7969 130.114 99.0232 131.329 99.2509C132.335 99.4394 132.839 98.9201 133.484 98.3367C135.002 96.9652 136.789 96.3991 139.023 97.032ZM143.421 103.05C139.728 102.775 136.157 101.873 132.588 100.956C131.832 100.762 130.806 100.023 130.485 101.26C130.203 102.349 131.326 102.482 132.14 102.679C135.802 103.568 139.47 104.436 143.119 105.378C144.058 105.621 145.095 106.035 145.448 104.846C145.785 103.709 144.781 103.286 143.421 103.05ZM140.789 107.241C141.196 106.863 141.98 106.403 140.887 106.035C138.565 105.253 136.203 104.578 133.614 104.435C134.696 107.958 137.335 109.001 140.789 107.241ZM135.992 100.654C137.717 100.695 139.338 101.587 141.128 101.373C140.455 98.4554 137.556 97.0839 135.292 98.5526C133.918 99.444 133.919 100.181 135.992 100.654Z" fill="#EBFFEA"/>
<path d="M376.082 41.1552C377.048 41.325 377.98 41.036 378.64 42.3348C375.983 42.6596 373.535 42.4463 370.805 42.3449C372.171 40.7832 372.171 40.7832 376.082 41.1552Z" fill="#EBFFEA"/>
<path d="M64.2226 91.4373C50.7215 88.6385 37.4218 85.9107 23.8533 84.8538C21.141 84.6425 18.4245 84.773 15.7656 85.6811C17.1865 83.8679 19.1428 83.6698 21.1353 83.5428C26.4659 83.203 31.6602 84.3261 36.8627 85.1394C48.7814 87.0027 60.6359 89.2329 72.3673 92.075C73.1639 92.268 74.0278 92.2666 74.882 93.3475C71.0654 93.3489 67.8016 92.0651 64.2226 91.4373Z" fill="#EBFFEA"/>
<path d="M219.711 120.894C218.457 120.664 217.663 121.045 216.808 121.752C212.976 124.92 208.342 123.728 206.47 119.076C206.1 118.158 205.537 117.836 204.755 117.468C203.65 116.948 203.187 115.96 203.451 114.748C203.717 113.528 204.508 112.758 205.784 112.978C206.894 113.17 207.465 112.5 208.207 111.969C211.646 109.507 215.624 110.445 217.512 114.226C217.999 115.2 218.512 115.935 219.613 116.15C220.788 116.378 221.705 116.96 221.747 118.257C221.789 119.534 221.297 120.56 219.711 120.894ZM204.773 114.996C204.63 115.99 205.308 116.377 206.067 116.553C210.307 117.534 214.625 118.187 218.755 119.63C219.523 119.898 220.096 119.523 220.318 118.782C220.534 118.065 220.023 117.668 219.438 117.48C218.889 117.304 218.297 117.211 217.719 117.187C213.994 117.031 210.452 116.064 206.969 114.821C206.293 114.58 205.652 113.931 204.773 114.996ZM208.131 119.924C210.776 123.044 213.543 123.216 216.151 120.269C213.768 119.095 211.2 118.847 208.718 118.355C207.753 118.163 207.632 118.872 208.131 119.924ZM215.904 113.866C213.207 111.026 210.271 111.042 208.577 114.102C211.179 114.882 213.683 115.809 216.697 115.84C216.401 115.068 216.228 114.617 215.904 113.866Z" fill="#EBFFEA"/>
<path d="M247.923 189.798C251.023 197.332 251.985 204.809 249.348 212.509C245.761 222.985 236.357 226.398 227.058 220.383C219.571 215.541 215.61 208.295 214.012 199.688C212.832 193.338 213.37 187.158 216.446 181.356C220.85 173.05 229.272 170.961 237.057 176.258C241.993 179.617 245.273 184.34 247.923 189.798ZM248.736 210.345C250.091 205.538 250.084 200.711 248.691 195.937C246.37 187.978 242.561 180.949 235.134 176.628C228.557 172.803 222.49 174.351 218.329 180.693C214.391 186.697 213.95 193.39 215.402 200.117C217.403 209.387 221.903 217.073 231.103 221.005C237.298 223.654 243.264 221.512 246.53 215.587C247.377 214.051 247.937 212.357 248.736 210.345Z" fill="#EBFFEA"/>
<path d="M25.1902 149.974C21.8209 142.56 20.9154 135.11 23.8306 127.58C26.9397 119.549 34.5311 117.739 40.9737 123.42C45.5098 127.419 47.6743 132.765 48.7828 138.58C49.8003 143.919 49.3237 149.102 46.8967 154.02C43.4577 160.988 37.297 162.358 31.1932 157.561C28.6342 155.55 26.7164 153.039 25.1902 149.974ZM40.6022 158.777C42.9138 157.717 44.5305 155.965 45.6542 153.717C48.3714 148.28 48.6513 142.614 47.1293 136.825C45.6896 131.35 43.3133 126.393 38.4479 123.1C33.721 119.901 28.9214 121.06 26.0477 125.983C25.5843 126.777 25.121 127.602 24.8501 128.472C21.7308 138.497 23.4273 147.585 30.6113 155.326C33.08 157.986 36.1856 160.001 40.6022 158.777Z" fill="#EBFFEA"/>
<path d="M344.042 155.289C343.5 155.554 343.01 155.76 342.958 155.116C342.9 154.408 343.411 153.447 343.912 153.549C347.678 154.319 350.578 151.89 353.98 151.218C351.266 153.839 347.795 154.669 344.042 155.289Z" fill="#EBFFEA"/>
<path d="M114.418 119.395C114.864 120.43 114.642 121.161 113.976 121.919C112.963 121.719 112.29 121.09 111.715 120.304C111.947 119.13 112.657 118.398 113.379 117.768C114.306 118.027 114.264 118.667 114.418 119.395Z" fill="#EBFFEA"/>
<path d="M159.495 130.143C157.224 128.437 157.413 126.818 160.055 125.49C160.008 127.121 162.31 128.706 159.495 130.143Z" fill="#EBFFEA"/>
<path d="M103.646 169.466C102.933 169.476 101.864 169.771 101.985 168.621C102.102 167.509 100.75 166.418 101.972 165.349C102.995 164.455 103.696 164.985 104.116 165.963C104.575 167.032 104.309 168.102 103.694 169.294C103.621 169.487 103.638 169.473 103.646 169.466Z" fill="#EBFFEA"/>
<path d="M99.0938 164.941C101.102 165.519 101.486 166.935 100.158 169.297C99.1274 168.102 99.5201 166.59 99.1004 165.122C99.1157 164.919 99.101 164.934 99.0938 164.941Z" fill="#EBFFEA"/>
<path d="M194.918 2.64365C195.054 3.23423 195.108 3.64979 195.13 4.06704C195.199 5.33325 195.44 6.90215 193.52 6.7495C191.767 6.6101 192.247 4.99783 192.343 3.93754C192.474 2.4997 193.114 1.46574 194.918 2.64365Z" fill="#EBFFEA"/>
<path d="M138.604 179.219C138.119 177.719 139.073 177.876 139.901 177.648C140.415 179.114 140.233 180.317 139.769 181.595C138.697 181.056 139.046 180.051 138.604 179.219Z" fill="#EBFFEA"/>
<path d="M166.286 196.123C166.649 197.554 166.665 198.815 166.19 200.278C164.624 199.263 165.201 197.691 164.886 196.492C164.755 195.994 165.522 195.623 166.286 196.123Z" fill="#EBFFEA"/>
<path d="M401.336 150.296C399.213 149.807 400.094 147.879 399.62 146.609C399.576 146.49 400 146.051 400.257 145.995C400.706 145.898 401.129 146.217 401.178 146.645C401.299 147.717 401.31 148.801 401.338 150.099C401.312 150.318 401.328 150.303 401.336 150.296Z" fill="#EBFFEA"/>
<path d="M312.514 227.508C312.145 227.864 311.786 228.204 311.428 228.545C308.77 226.959 308.703 226.406 311.001 224.688C312.113 225.123 311.924 226.338 312.485 227.3C312.544 227.464 312.523 227.493 312.514 227.508Z" fill="#EBFFEA"/>
<path d="M277.37 146.82C277.803 145.456 277.52 144.236 276.746 142.897C277.784 142.43 278.888 142.466 278.738 143.9C278.633 144.915 279.966 146.743 277.37 146.82Z" fill="#EBFFEA"/>
<path d="M266.604 97.6486C266.257 98.1418 265.891 98.4448 265.226 98.9953C264.97 97.3663 264.761 96.0312 264.566 94.4912C266.382 94.6279 266.302 96.158 266.604 97.6486Z" fill="#EBFFEA"/>
<path d="M241.805 191.877C243.479 196.322 244.666 200.601 243.579 205.268C241.995 212.07 236.258 214.31 230.579 210.106C226.722 207.251 224.936 203.125 224.098 198.543C223.486 195.195 223.598 191.87 224.949 188.69C226.919 184.054 231.335 182.572 235.704 185.091C238.4 186.646 240.267 188.997 241.805 191.877ZM242.066 206.125C243.71 200.505 242.408 195.327 239.521 190.477C238.268 188.373 236.486 186.673 234.145 185.707C231.149 184.47 228.269 185.346 226.7 187.952C222.998 194.102 225.731 205.596 231.802 209.407C236.47 212.338 239.519 211.456 242.066 206.125Z" fill="#EBFFEA"/>
<path d="M34.0576 147.218C31.0907 143.513 30.3627 139.37 30.8575 134.987C31.1069 132.778 31.8539 130.692 34.3154 129.895C36.578 129.162 38.2851 130.332 39.6915 131.791C43.1857 135.415 44.5508 139.812 43.4284 144.735C42.1378 150.396 38.3592 151.4 34.0576 147.218ZM38.8526 132.586C35.1358 129.746 33.1936 130.419 32.153 134.964C31.2084 139.089 32.4533 142.754 34.772 146.101C35.7955 147.579 37.184 148.957 39.1548 148.482C41.3003 147.966 42.0837 146.031 42.3665 144.065C42.9705 139.866 41.9952 136.06 38.8526 132.586Z" fill="#EBFFEA"/>
<path d="M108.67 87.2032L107.343 90.3C106.906 91.3197 106.065 92.1121 105.021 92.4879L89.8879 97.9358M89.8879 97.9358V127.561C89.8879 127.933 89.9397 128.303 90.0418 128.66L90.822 131.391C91.0849 132.311 91.6689 133.106 92.4681 133.633L118.357 150.681C118.606 150.846 118.873 150.981 119.152 151.086L134.831 156.966M89.8879 97.9358L37.3575 83.7526C33.397 82.6833 33.421 77.056 37.3905 76.0205L82.3039 64.3039C83.6776 63.9456 85.1382 64.3421 86.1421 65.346L91.2294 70.4333M134.831 156.966L136.173 153.612M134.831 156.966L173.999 169.369C174.705 169.592 175.459 169.616 176.177 169.436L183.851 167.517C184.996 167.231 186.187 167.779 186.715 168.834C186.996 169.398 187.057 170.047 186.884 170.653L186.779 171.019C186.246 172.886 187.335 174.829 189.206 175.349L195.834 177.19C197.117 177.547 198.138 178.517 198.559 179.78L198.962 180.99C199.781 183.446 202.681 184.489 204.877 183.117L216.668 175.748L229.399 167.445C230.937 166.442 232.982 166.749 234.157 168.159C234.961 169.123 236.207 169.603 237.449 169.425L243.789 168.519C244.478 168.421 245.13 168.144 245.679 167.717L250.264 164.151C250.652 163.85 250.878 163.386 250.878 162.896C250.878 161.904 251.777 161.154 252.753 161.331L264.406 163.45C265.207 163.596 265.944 163.982 266.519 164.557L270.736 168.774C271.344 169.382 271.74 170.17 271.865 171.021L274.768 190.758C274.933 191.878 275.564 192.876 276.506 193.504L278.277 194.685C279.719 195.646 279.921 197.685 278.696 198.91C278.487 199.119 278.246 199.293 277.982 199.425L274.803 201.014C273.677 201.577 272.882 202.638 272.656 203.876L272.078 207.055C271.827 208.44 272.321 209.855 273.38 210.781L275.565 212.693C276.495 213.507 277.749 213.845 278.962 213.609L300.869 209.349C301.081 209.308 301.289 209.25 301.492 209.175L332.044 197.884L396.44 173.735L410.165 166.249C410.839 165.881 411.393 165.327 411.761 164.653L413.649 161.192C414.563 159.515 414.165 157.426 412.698 156.204L412.637 156.153C411.725 155.393 411.198 154.267 411.198 153.08V141.198C411.198 140.977 411.179 140.757 411.143 140.54L409.831 132.667C409.472 130.516 407.457 129.048 405.299 129.368L393.751 131.079C392.134 131.318 390.534 130.55 389.71 129.137L386.378 123.426M136.173 153.612L129.465 148.916M136.173 153.612H140.197M129.465 148.916L130.806 136.171M129.465 148.916L127.651 148.009C126.296 147.332 125.44 145.947 125.44 144.432V140.636C125.44 139.502 124.959 138.421 124.116 137.662L119.352 133.375C118.943 133.007 118.463 132.727 117.941 132.553L114.707 131.475M128.123 121.414L129.668 122.186C131.16 122.932 132.032 124.525 131.858 126.183L130.806 136.171M130.806 136.171L136.825 137.174C138.099 137.387 139.398 136.97 140.311 136.057L143.551 132.817C144.292 132.076 144.292 130.875 143.551 130.134M386.378 123.426L393.757 114.706M386.378 123.426H378.701C376.897 123.426 375.316 122.219 374.842 120.478L374.639 119.737M242.829 135.5L245.326 134.43C246.679 133.85 247.605 132.572 247.734 131.105L249.158 114.971C249.362 112.655 251.492 111 253.787 111.375L279.597 115.589C281.278 115.863 282.601 117.173 282.893 118.851L284.6 128.668C284.893 130.349 286.218 131.659 287.901 131.932L306.458 134.941C308.434 135.261 309.869 136.993 309.816 138.994L308.647 183.395C308.6 185.213 309.784 186.834 311.531 187.341L328.064 192.141C328.905 192.385 329.803 192.347 330.621 192.031L356.317 182.103C357.859 181.507 358.876 180.024 358.876 178.371V149.848C358.876 147.304 356.52 145.415 354.037 145.967L353.943 145.987C353.224 146.147 352.472 146.086 351.788 145.813C350.397 145.256 349.485 143.909 349.485 142.411V101.886C349.485 99.9791 350.83 98.3375 352.7 97.9635L376.558 93.192C378.381 92.8274 380.214 93.7667 380.984 95.4591L382.339 98.4399C382.778 99.4056 382.815 100.506 382.442 101.5L377.395 114.96C377.15 115.614 376.525 116.047 375.826 116.047C374.722 116.047 373.92 117.097 374.21 118.163L374.639 119.737M374.639 119.737L381.628 115.543C382.523 115.006 383.173 114.141 383.439 113.131L386.143 102.856C386.298 102.267 386.316 101.65 386.197 101.053L383.171 85.9234C383.074 85.4392 382.888 84.9771 382.623 84.5604L373.968 70.9595C373.746 70.6108 373.472 70.2987 373.154 70.0341L362.336 61.0193C361.826 60.5941 361.43 60.0486 361.183 59.4319L358.876 53.6635M202.581 25.4902L191.058 27.3422C186.715 28.0401 186.815 34.3221 191.178 34.8813M191.178 34.8813L218.115 30.2823C218.49 30.2183 218.872 30.2081 219.25 30.252L247.524 33.5397M191.178 34.8813L176.096 38.9417C174.648 39.3316 173.539 40.4993 173.225 41.966L164.171 84.2202C163.865 85.6464 164.36 87.1258 165.462 88.0811L172.116 93.8482C173.129 94.7255 173.635 96.0511 173.464 97.3797L170.636 119.439C170.482 120.639 171.053 121.816 172.09 122.438C173.096 123.042 173.666 124.17 173.555 125.338L172.729 134.012C172.538 136.014 173.863 137.846 175.824 138.292L185.206 140.424C186.432 140.703 187.717 140.389 188.677 139.577L191.513 137.177M195.873 133.488L191.513 137.177M191.513 137.177L194.532 140.867" stroke="#22B55F" stroke-width="5"/>
<path d="M301.188 209.287L400.465 172.394" stroke="#B52C22" stroke-width="5" stroke-linecap="round"/>
<path d="M175.75 39.5758C177.882 36.8206 217.866 30.3555 218.681 30.1847C219.496 30.0139 248.196 33.5387 248.196 33.5387" stroke="#B52C22" stroke-width="5" stroke-linecap="round"/>
<path d="M187.824 35.5521V28.3638C187.824 27.8688 188.186 27.4483 188.676 27.3749L201.24 25.4902" stroke="#B52C22" stroke-width="6" stroke-linecap="round"/>
</svg>
